<svg xmlns="http://www.w3.org/2000/svg" viewBox="0 0 1366 768"><defs><style>.cls-1{isolation:isolate;}.cls-2{fill:#b1c3cd;}.cls-3{fill:#667273;}.cls-11,.cls-4{fill:#606060;}.cls-5{fill:#ef4736;}.cls-6,.cls-9{fill:none;stroke-linecap:round;}.cls-6{stroke:#ffda04;stroke-miterlimit:10;}.cls-7,.cls-8{fill:#ffda04;}.cls-7{opacity:0.4;}.cls-9{stroke:#8e9a9b;stroke-linejoin:round;}.cls-10,.cls-12{fill:#fffbf2;}.cls-11,.cls-12{opacity:0.3;}.cls-11{mix-blend-mode:multiply;}.cls-12{mix-blend-mode:screen;}.cls-13{fill:#f0c600;}.cls-14{fill:#474745;}.cls-15{fill:#fff;}.cls-16{fill:#3a4950;}.cls-17{fill:#e14136;}.cls-18{fill:#9ed7f2;}.cls-19{fill:#f0f8ff;}.cls-20{fill:#e7f6fd;}.cls-21{fill:#d6e8f2;}</style></defs><title>403 Page - No Text</title><g class="cls-1"><g id="Layer_1" data-name="Layer 1"><ellipse class="cls-2" cx="378.36" cy="577.92" rx="279.64" ry="16.49"/><path class="cls-3" d="M285.66,364.13V371H257.53v-6.91c0-.1,0-.2,0-.3a7.64,7.64,0,0,1,7.64-7.36H278a7.64,7.64,0,0,1,7.64,7.66Z"/><rect class="cls-3" x="262.99" y="370.07" width="17.21" height="189.04"/><rect class="cls-3" x="245.14" y="559.02" width="52.9" height="14.23"/><path class="cls-4" d="M298,559v14.24h-26.6a10.19,10.19,0,0,0-10.07-8.56H245.14V559Z"/><path class="cls-4" d="M285.66,364.13V371H280.2V559.11h-8.62a15.44,15.44,0,0,0-2.67-8.29,15.93,15.93,0,0,0-5.54-5l-.38-.2v-16h8.6V476.34a15.92,15.92,0,0,0-2.73-8.95,15.65,15.65,0,0,0-5.87-5.23v-15.8h8.6v-67.2a15.22,15.22,0,0,0-2.33-8.12,6.57,6.57,0,0,0-.65-1,12.81,12.81,0,0,0-1.56-1.83,15.53,15.53,0,0,0-4.88-3.28,15,15,0,0,0-4.63-1.13,7.64,7.64,0,0,1,7.64-7.36H278a7.64,7.64,0,0,1,7.64,7.66Z"/><circle class="cls-5" cx="271.79" cy="335.63" r="21.8"/><path class="cls-6" d="M287.92,344.67a18.54,18.54,0,0,1-5.8,6.3"/><path class="cls-6" d="M276.54,353.51a18.68,18.68,0,0,1-4.05.6"/><path class="cls-6" d="M256.66,325a18.11,18.11,0,0,1,1.71-2.09"/><path class="cls-6" d="M261.85,320a18.51,18.51,0,0,1,19.08-.47"/><circle class="cls-7" cx="271.79" cy="335.63" r="14.79" transform="translate(-152.54 255.24) rotate(-40.27)"/><circle class="cls-8" cx="271.79" cy="335.63" r="9.72"/><path class="cls-9" d="M266.22,475.26v13.38"/><path class="cls-9" d="M266.22,551.67v5.16"/><path class="cls-3" d="M499.19,364.13V371H471.06v-6.91a1.51,1.51,0,0,1,0-.3,7.64,7.64,0,0,1,7.64-7.36h12.83a7.64,7.64,0,0,1,7.64,7.66Z"/><rect class="cls-3" x="476.52" y="370.07" width="17.21" height="189.04"/><rect class="cls-3" x="458.67" y="559.02" width="52.9" height="14.23"/><path class="cls-4" d="M511.58,559v14.24H485a10.21,10.21,0,0,0-10.08-8.56H458.67V559Z"/><path class="cls-4" d="M499.19,364.13V371h-5.46V559.11h-8.62a15.43,15.43,0,0,0-2.66-8.29,16.05,16.05,0,0,0-5.55-5l-.38-.2v-16h8.61V476.34a15.92,15.92,0,0,0-2.73-8.95,15.76,15.76,0,0,0-5.88-5.23v-15.8h8.61v-67.2A15.22,15.22,0,0,0,482.8,371a7.46,7.46,0,0,0-.65-1,12.88,12.88,0,0,0-1.57-1.83A15.53,15.53,0,0,0,475.7,365a15.05,15.05,0,0,0-4.62-1.13,7.64,7.64,0,0,1,7.64-7.36h12.83a7.64,7.64,0,0,1,7.64,7.66Z"/><circle class="cls-5" cx="485.32" cy="335.63" r="21.8"/><path class="cls-6" d="M501.46,344.67a18.56,18.56,0,0,1-5.81,6.3"/><path class="cls-6" d="M490.08,353.51a18.77,18.77,0,0,1-4.06.6"/><path class="cls-6" d="M470.19,325a18.11,18.11,0,0,1,1.71-2.09"/><path class="cls-6" d="M475.39,320a18.49,18.49,0,0,1,19.07-.47"/><circle class="cls-7" cx="485.32" cy="335.63" r="14.79" transform="translate(39.41 722.08) rotate(-75.58)"/><circle class="cls-8" cx="485.32" cy="335.63" r="9.72"/><path class="cls-9" d="M479.75,475.26v13.38"/><path class="cls-9" d="M479.75,551.67v5.16"/><rect class="cls-10" x="234.54" y="495.34" width="287.63" height="41.77"/><polygon class="cls-5" points="266.27 495.34 234.54 527.13 234.54 510.05 249.22 495.34 266.27 495.34"/><polygon class="cls-5" points="299.66 495.34 257.98 537.1 240.92 537.1 282.6 495.34 299.66 495.34"/><polygon class="cls-5" points="333.04 495.34 291.36 537.1 274.31 537.1 315.99 495.34 333.04 495.34"/><polygon class="cls-5" points="366.43 495.34 324.75 537.1 307.69 537.1 349.37 495.34 366.43 495.34"/><polygon class="cls-5" points="399.82 495.34 358.14 537.1 341.08 537.1 382.76 495.34 399.82 495.34"/><polygon class="cls-5" points="433.2 495.34 391.52 537.1 374.46 537.1 416.14 495.34 433.2 495.34"/><polygon class="cls-5" points="466.59 495.34 424.91 537.1 407.85 537.1 449.53 495.34 466.59 495.34"/><polygon class="cls-5" points="499.97 495.34 458.29 537.1 441.24 537.1 482.92 495.34 499.97 495.34"/><polygon class="cls-5" points="522.18 495.34 522.18 506.56 491.68 537.1 474.62 537.1 516.3 495.34 522.18 495.34"/><polygon class="cls-5" points="522.18 522.9 522.18 537.1 508.01 537.1 522.18 522.9"/><path class="cls-11" d="M522.18,495.34V537.1H438.36a93,93,0,0,0-68.2-29.63H234.54V495.34Z"/><rect class="cls-10" x="234.55" y="370.07" width="287.64" height="83.51"/><polygon class="cls-5" points="284.88 370.07 234.54 420.51 234.54 393.64 258.08 370.07 284.88 370.07"/><polygon class="cls-5" points="338.5 370.07 255.15 453.59 234.54 453.59 234.54 447.36 311.68 370.07 338.5 370.07"/><polygon class="cls-5" points="392.1 370.07 308.75 453.59 281.95 453.59 365.3 370.07 392.1 370.07"/><polygon class="cls-5" points="445.72 370.07 362.37 453.59 335.57 453.59 418.92 370.07 445.72 370.07"/><polygon class="cls-5" points="499.34 370.07 415.99 453.59 389.17 453.59 472.52 370.07 499.34 370.07"/><polygon class="cls-5" points="522.18 374.03 522.18 400.88 469.59 453.59 442.79 453.59 522.18 374.03"/><polygon class="cls-5" points="522.18 430.55 522.18 453.59 499.19 453.59 522.18 430.55"/><path class="cls-12" d="M387.86,440.05H253.51a8.36,8.36,0,0,1-8.37-8.36h0a8.37,8.37,0,0,1,8.37-8.37H387.86a8.36,8.36,0,0,1,8.37,8.37h0A8.36,8.36,0,0,1,387.86,440.05Z"/><path class="cls-12" d="M354.56,531.27H253.51a8.37,8.37,0,0,1-8.37-8.37h0a8.37,8.37,0,0,1,8.37-8.37H354.56a8.39,8.39,0,0,1,8.37,8.37h0A8.37,8.37,0,0,1,354.56,531.27Z"/><path class="cls-11" d="M234.54,370.07v25.2H370.16a93,93,0,0,1,41.14,9.54l-48.77,48.77h74l18.9-18.9a93.47,93.47,0,0,1,10.37,18.91h56.4V370.07Z"/><path class="cls-11" d="M461.6,415.73a7.36,7.36,0,0,1-2.08,3.9l-33.94,33.95H378.36V370.07h42.32l38.84,38.85A7.58,7.58,0,0,1,461.6,415.73Z"/><path class="cls-8" d="M453.28,411.9a5.65,5.65,0,0,1-1.66,4l-74,74a5.66,5.66,0,0,1-8,0l-74-74a5.66,5.66,0,0,1,0-8l56.77-56.76,17.25-17.27a5.66,5.66,0,0,1,8,0l74,74A5.6,5.6,0,0,1,453.28,411.9Z"/><path class="cls-13" d="M453.28,411.9a5.65,5.65,0,0,1-1.66,4l-74,74a5.66,5.66,0,0,1-8,0l-14.12-14.12L386.26,445a42.39,42.39,0,0,0,0-60l-33.91-33.91,17.25-17.27a5.66,5.66,0,0,1,8,0l74,74A5.6,5.6,0,0,1,453.28,411.9Z"/><path class="cls-14" d="M310.31,414.3a2.15,2.15,0,1,1,2.14-2.15A2.15,2.15,0,0,1,310.31,414.3Z"/><path class="cls-4" d="M310.74,414.3a2.15,2.15,0,1,1,2.14-2.15A2.15,2.15,0,0,1,310.74,414.3Z"/><path class="cls-14" d="M436.94,410a2.15,2.15,0,1,1-2.15,2.15A2.14,2.14,0,0,1,436.94,410Z"/><circle class="cls-4" cx="436.51" cy="412.15" r="2.15"/><path class="cls-15" d="M373.6,484.31a6,6,0,0,1-4.26-1.76L303,416.16a6,6,0,0,1,0-8.51l66.38-66.39a6.18,6.18,0,0,1,8.52,0l66.38,66.39a6,6,0,0,1,0,8.51l-66.38,66.39A6,6,0,0,1,373.6,484.31Zm0-142.9a4.12,4.12,0,0,0-2.91,1.2L304.31,409a4.12,4.12,0,0,0,0,5.81l66.38,66.39a4.22,4.22,0,0,0,5.82,0l66.38-66.39a4.09,4.09,0,0,0,0-5.81l-66.38-66.39A4.12,4.12,0,0,0,373.6,341.41Z"/><path class="cls-16" d="M385.89,438.43a9.82,9.82,0,0,1-3.32,7.93,11.53,11.53,0,0,1-15.06,0,11.14,11.14,0,0,1,0-15.87,11.53,11.53,0,0,1,15.06,0A9.82,9.82,0,0,1,385.89,438.43Zm-1.52-50.77q0,9.45-.7,17.62t-1.86,16.58H368.5q-1.17-8.42-1.92-16.58t-.76-17.62V366.77h18.55Z"/><polygon class="cls-5" points="610.04 559.1 541.51 559.1 546.65 539.25 550.99 522.41 554.61 508.43 558.95 491.6 569.49 450.79 582.06 450.79 592.6 491.6 596.94 508.43 600.55 522.41 604.9 539.25 610.04 559.1"/><polygon class="cls-10" points="596.94 508.43 554.61 508.43 558.95 491.6 592.6 491.6 596.94 508.43"/><polygon class="cls-10" points="604.89 539.25 546.66 539.25 550.99 522.41 600.56 522.41 604.89 539.25"/><rect class="cls-17" x="526.73" y="559.02" width="98.09" height="14.23"/><path class="cls-11" d="M624.82,559v14.24H580.28a10.19,10.19,0,0,0-10.07-8.56H526.73V559Z"/><path class="cls-11" d="M577.78,559.1c14.66-66.4-8.29-108.31-8.29-108.31h12.57L592.6,491.6l4.34,16.83,3.61,14,4.35,16.84L610,559.1Z"/><path class="cls-12" d="M571.14,515c-3.42,17.6-8.84,31.36-12.11,30.72s-3.17-15.42.24-33,8.84-31.36,12.12-30.73S574.55,497.35,571.14,515Z"/><polygon class="cls-5" points="215.21 559.1 146.69 559.1 151.83 539.25 156.16 522.41 159.78 508.43 164.12 491.6 174.66 450.79 187.23 450.79 197.77 491.6 202.11 508.43 205.72 522.41 210.07 539.25 215.21 559.1"/><polygon class="cls-10" points="202.11 508.43 159.78 508.43 164.12 491.6 197.77 491.6 202.11 508.43"/><polygon class="cls-10" points="210.07 539.25 151.83 539.25 156.16 522.41 205.73 522.41 210.07 539.25"/><rect class="cls-17" x="131.9" y="559.02" width="98.09" height="14.23"/><path class="cls-11" d="M230,559v14.24H185.46a10.21,10.21,0,0,0-10.08-8.56H131.9V559Z"/><path class="cls-11" d="M183,559.1c14.66-66.4-8.29-108.31-8.29-108.31h12.57l10.54,40.81,4.34,16.83,3.61,14,4.35,16.84,5.14,19.85Z"/><path class="cls-12" d="M176.31,515c-3.41,17.6-8.84,31.36-12.11,30.72s-3.17-15.42.25-33,8.83-31.36,12.11-30.73S179.72,497.35,176.31,515Z"/><path class="cls-18" d="M564.75,282.38a2.85,2.85,0,0,0-.29,0,8.87,8.87,0,0,0-13-5.48,15.55,15.55,0,0,0-3.17-3.91,8.87,8.87,0,0,0-12.4-11.64A15.58,15.58,0,0,0,510,259.46a15.42,15.42,0,0,0-5.78-1.12,15.63,15.63,0,0,0-15,11.16,15.63,15.63,0,0,0-9.85,7.43,8.86,8.86,0,0,0-12.1,3.34,4.89,4.89,0,0,0-2.32-.58,5,5,0,0,0,0,9.91,4.89,4.89,0,0,0,2.32-.58,8.86,8.86,0,0,0,12.1,3.34,15.57,15.57,0,0,0,25,2.85,15.58,15.58,0,0,0,22.48.49,15.59,15.59,0,0,0,24.56-3.34,8.93,8.93,0,0,0,4.39,1.16,8.83,8.83,0,0,0,6.57-2.92,4.43,4.43,0,1,0,2.3-8.22Z"/><path class="cls-19" d="M564.45,282.4a8.86,8.86,0,0,0-13-5.47,15.55,15.55,0,0,0-3.17-3.91,8.87,8.87,0,0,0-12.4-11.64A15.58,15.58,0,0,0,510,259.46a15.42,15.42,0,0,0-5.78-1.12,15.63,15.63,0,0,0-15,11.16,15.63,15.63,0,0,0-9.85,7.43,8.86,8.86,0,0,0-12.1,3.34,4.89,4.89,0,0,0-2.32-.58"/><path class="cls-20" d="M565.61,285l-.18,0a5.65,5.65,0,0,0-5.46-4.23,5.59,5.59,0,0,0-2.79.74,10,10,0,0,0-2-2.49,5.65,5.65,0,0,0-5-8.18,5.57,5.57,0,0,0-2.84.78,9.91,9.91,0,0,0-16.47-1.23,9.93,9.93,0,0,0-13.21,6.39,11.78,11.78,0,0,0-1.19.38,7.36,7.36,0,0,0-13.12.31l0,0a4.16,4.16,0,0,0,.45-1.9,4.24,4.24,0,0,0-6.38-3.66,7.45,7.45,0,0,0-12.38-.92,7.44,7.44,0,0,0-9.92,4.8,7.44,7.44,0,0,0-4.71,3.56,4.15,4.15,0,0,0-2.1-.56,4.25,4.25,0,0,0-3.69,2.15,2.43,2.43,0,0,0-1.11-.27,2.37,2.37,0,0,0,0,4.73,2.43,2.43,0,0,0,1.11-.27,4.23,4.23,0,0,0,5.79,1.59,7.44,7.44,0,0,0,12,1.37,7.45,7.45,0,0,0,10.75.23,7.46,7.46,0,0,0,5.27,2.18,7.35,7.35,0,0,0,3.55-.92c.11,0,.21,0,.32,0a3.09,3.09,0,0,0,1.48-.37,5.64,5.64,0,0,0,4.91,2.87,5.75,5.75,0,0,0,2.79-.74,9.9,9.9,0,0,0,15.91,1.81,9.9,9.9,0,0,0,14.3.31,9.93,9.93,0,0,0,15.64-2.12,5.69,5.69,0,0,0,2.79.74,5.59,5.59,0,0,0,4.18-1.87,2.74,2.74,0,0,0,1.46.43,2.83,2.83,0,1,0,0-5.65Z"/><path class="cls-21" d="M506.13,279.13a3.24,3.24,0,0,1-.31,1.77,4.79,4.79,0,0,1-1.31,1.56,7.91,7.91,0,0,1-9.1,0,4.54,4.54,0,0,1-1.3-1.56,3.24,3.24,0,0,1-.31-1.77,4.37,4.37,0,0,0,2,3.05,7.77,7.77,0,0,0,8.33,0A4.37,4.37,0,0,0,506.13,279.13Z"/><path class="cls-21" d="M543.81,275.71a3.29,3.29,0,0,1-.31,1.78,4.74,4.74,0,0,1-1.3,1.56,7.91,7.91,0,0,1-9.1,0,4.9,4.9,0,0,1-1.31-1.56,3.29,3.29,0,0,1-.31-1.78,4.45,4.45,0,0,0,2,3.06,7.53,7.53,0,0,0,4.17,1.2,7.44,7.44,0,0,0,4.16-1.2A4.39,4.39,0,0,0,543.81,275.71Z"/><path class="cls-21" d="M527.94,284.58a3.26,3.26,0,0,1-.31,1.78,4.64,4.64,0,0,1-1.3,1.56,7.91,7.91,0,0,1-9.1,0,4.79,4.79,0,0,1-1.31-1.56,3.36,3.36,0,0,1-.31-1.78,4.43,4.43,0,0,0,2,3.06,7.85,7.85,0,0,0,8.34,0A4.39,4.39,0,0,0,527.94,284.58Z"/><path class="cls-18" d="M257.12,202.53c.11,0,.2,0,.3,0a8.88,8.88,0,0,1,8.58-6.64,8.76,8.76,0,0,1,4.38,1.17,15.46,15.46,0,0,1,3.18-3.92A8.86,8.86,0,0,1,286,181.54a15.57,15.57,0,0,1,25.88-1.93,15.59,15.59,0,0,1,20.75,10,15.63,15.63,0,0,1,9.85,7.44,8.79,8.79,0,0,1,4.38-1.17,8.89,8.89,0,0,1,7.72,4.5,5,5,0,0,1,2.32-.57,4.95,4.95,0,0,1,0,9.9,4.89,4.89,0,0,1-2.32-.58,8.86,8.86,0,0,1-12.1,3.34,15.58,15.58,0,0,1-25,2.85,15.57,15.57,0,0,1-22.47.49,15.6,15.6,0,0,1-24.57-3.34,8.85,8.85,0,0,1-10.95-1.76,4.43,4.43,0,1,1-2.31-8.22Z"/><path class="cls-19" d="M257.42,202.55a8.88,8.88,0,0,1,8.58-6.63,8.76,8.76,0,0,1,4.38,1.17,15.46,15.46,0,0,1,3.18-3.92A8.86,8.86,0,0,1,286,181.54a15.57,15.57,0,0,1,25.88-1.93,15.59,15.59,0,0,1,20.75,10,15.63,15.63,0,0,1,9.85,7.44,8.79,8.79,0,0,1,4.38-1.17,8.89,8.89,0,0,1,7.72,4.5,5,5,0,0,1,2.32-.57"/><path class="cls-20" d="M256.26,205.19l.19,0a5.64,5.64,0,0,1,8.25-3.49,10.32,10.32,0,0,1,2-2.49,5.64,5.64,0,0,1,7.89-7.4,9.91,9.91,0,0,1,16.47-1.23,9.92,9.92,0,0,1,13.2,6.39,9.89,9.89,0,0,1,1.2.39,7.35,7.35,0,0,1,13.12.31l0-.05a4.16,4.16,0,0,1-.46-1.9,4.25,4.25,0,0,1,6.39-3.66,7.44,7.44,0,0,1,12.37-.92,7.48,7.48,0,0,1,9.93,4.8,7.5,7.5,0,0,1,4.71,3.56,4.23,4.23,0,0,1,5.79,1.59,2.37,2.37,0,1,1,0,4.19,4.25,4.25,0,0,1-3.7,2.15,4.14,4.14,0,0,1-2.09-.56,7.44,7.44,0,0,1-12,1.37,7.45,7.45,0,0,1-10.75.23,7.42,7.42,0,0,1-8.83,1.26,3,3,0,0,1-.31,0,3.06,3.06,0,0,1-1.48-.37,5.63,5.63,0,0,1-7.7,2.13,9.91,9.91,0,0,1-15.92,1.81,9.9,9.9,0,0,1-14.3.31,9.92,9.92,0,0,1-15.63-2.12,5.63,5.63,0,0,1-7-1.12,2.82,2.82,0,1,1-1.47-5.23Z"/><path class="cls-21" d="M315.75,199.28a3.29,3.29,0,0,0,.31,1.78,4.61,4.61,0,0,0,1.3,1.55,7.91,7.91,0,0,0,9.1,0,4.64,4.64,0,0,0,1.31-1.55,3.29,3.29,0,0,0,.31-1.78,4.4,4.4,0,0,1-2,3.05,7.77,7.77,0,0,1-8.33,0A4.37,4.37,0,0,1,315.75,199.28Z"/><path class="cls-21" d="M278.07,195.86a3.17,3.17,0,0,0,.31,1.78,4.64,4.64,0,0,0,1.3,1.56,7.91,7.91,0,0,0,9.1,0,4.64,4.64,0,0,0,1.3-1.56,3.17,3.17,0,0,0,.31-1.78,4.39,4.39,0,0,1-2,3.06,7.85,7.85,0,0,1-8.34,0A4.39,4.39,0,0,1,278.07,195.86Z"/><path class="cls-21" d="M293.94,204.74a3.16,3.16,0,0,0,.31,1.77,4.54,4.54,0,0,0,1.3,1.56,7.91,7.91,0,0,0,9.1,0,4.54,4.54,0,0,0,1.3-1.56,3.16,3.16,0,0,0,.31-1.77,4.39,4.39,0,0,1-2,3A7.56,7.56,0,0,1,300.1,209a7.48,7.48,0,0,1-4.17-1.21A4.39,4.39,0,0,1,293.94,204.74Z"/><path class="cls-18" d="M262.39,256.45A12.85,12.85,0,0,0,252.23,243a18,18,0,1,0-34.31-10.6,19.4,19.4,0,0,0-21.26-7.81,18,18,0,0,0-33.93-3.06,12.85,12.85,0,0,0-21.22,8.23,29.46,29.46,0,0,0-8.26,10.09,14.35,14.35,0,0,0-.49,28.67,14.79,14.79,0,0,0,2,0A29.24,29.24,0,0,0,151.32,281a18,18,0,0,0,33.72,6.3c.53.08,1.06.15,1.6.19a17.94,17.94,0,0,0,12.63-4.09,18,18,0,0,0,24.89,1.42,18,18,0,0,0,27-14.34,19.1,19.1,0,0,0,0-2.14A12.87,12.87,0,0,0,262.39,256.45Z"/><path class="cls-18" d="M262.39,256.45A12.85,12.85,0,0,0,252.23,243a18,18,0,1,0-34.31-10.6,19.4,19.4,0,0,0-21.26-7.81,18,18,0,0,0-33.93-3.06,12.85,12.85,0,0,0-21.22,8.23,29.46,29.46,0,0,0-8.26,10.09,14.35,14.35,0,0,0-.49,28.67,14.79,14.79,0,0,0,2,0A29.24,29.24,0,0,0,151.32,281a18,18,0,0,0,33.72,6.3c.53.08,1.06.15,1.6.19a17.94,17.94,0,0,0,12.63-4.09,18,18,0,0,0,24.89,1.42,18,18,0,0,0,27-14.34,19.1,19.1,0,0,0,0-2.14A12.87,12.87,0,0,0,262.39,256.45Z"/><path class="cls-19" d="M261.34,260.77A12.87,12.87,0,0,0,252.23,243a18,18,0,1,0-34.31-10.6,19.4,19.4,0,0,0-21.26-7.81,18,18,0,0,0-33.93-3.06,12.85,12.85,0,0,0-21.22,8.23,29.46,29.46,0,0,0-8.26,10.09,14.33,14.33,0,0,0-13.6,11.51Z"/><path class="cls-20" d="M256.68,245.37a10.15,10.15,0,0,0-3.83.48,16,16,0,0,0-26.23-8.8,16,16,0,0,0-19.91,2.26,11.26,11.26,0,0,0-21.61,5.54,11.65,11.65,0,0,0-15.83-1.74,12.73,12.73,0,0,0-9.33-5,13.06,13.06,0,0,0-4,.37,12.8,12.8,0,0,0-23.19,5.42A16,16,0,0,0,131,275.82a15.56,15.56,0,0,0,1.67,0,16,16,0,0,0,24.83,6.29,12.6,12.6,0,0,0,5.06,1.42,12.81,12.81,0,0,0,13.6-11.64,9.13,9.13,0,0,0,16.34-5c0-.33,0-.65,0-1l.11-.12a11.64,11.64,0,0,0,18.54-.89c.37.18.75.35,1.14.5a11.65,11.65,0,0,0,22.37-.63,14.63,14.63,0,0,0,1.5.18,16,16,0,0,0,11.32-3.71,10.27,10.27,0,1,0,9.23-15.95Z"/><path class="cls-21" d="M213.19,252.1a4.49,4.49,0,0,1-.66,2.58,7.22,7.22,0,0,1-2.21,2.15,13.34,13.34,0,0,1-14.4-.95,7.18,7.18,0,0,1-1.91-2.43,4.42,4.42,0,0,1-.31-2.64,6.46,6.46,0,0,0,2.86,4.7,13.21,13.21,0,0,0,13.18.87A6.44,6.44,0,0,0,213.19,252.1Z"/><path class="cls-21" d="M165.23,263.08a5.81,5.81,0,0,1-.76,3.13,8.2,8.2,0,0,1-2.51,2.62,14.13,14.13,0,0,1-16.22-1.07,8.4,8.4,0,0,1-2.14-2.93,5.85,5.85,0,0,1-.35-3.21,7.85,7.85,0,0,0,3.2,5.68,14,14,0,0,0,14.87,1A7.84,7.84,0,0,0,165.23,263.08Z"/><path class="cls-21" d="M245.13,250.39a6.3,6.3,0,0,1-.58,2.81,7.36,7.36,0,0,1-1.79,2.38,8.19,8.19,0,0,1-11.36-.75,7.31,7.31,0,0,1-1.46-2.6,6.47,6.47,0,0,1-.2-2.86,7.36,7.36,0,0,0,2.17,5,8,8,0,0,0,10.41.69A7.44,7.44,0,0,0,245.13,250.39Z"/></g></g></svg>