<svg id="Layer_1" data-name="Layer 1" xmlns="http://www.w3.org/2000/svg" xmlns:xlink="http://www.w3.org/1999/xlink" viewBox="0 0 1366 768"><defs><style>.cls-1{fill:none;}.cls-2{fill:#005a92;}.cls-3{clip-path:url(#clip-path);}.cls-4{fill:#fff100;}.cls-5{fill:#f26f31;}.cls-6{fill:#b1c3cd;}.cls-7{fill:#9ed7f2;}.cls-8{fill:#f0f8ff;}.cls-9{fill:#e7f6fd;}.cls-10{fill:#d6e8f2;}.cls-11{fill:#5fe383;}.cls-12{fill:#228a71;}.cls-13{fill:#44c788;}.cls-14{fill:#32ab8e;}.cls-15{fill:#f0f0f0;}.cls-16{fill:#534b62;}.cls-17{fill:#d6d6d6;}.cls-18{fill:#bdbdbd;}</style><clipPath id="clip-path"><rect class="cls-1" x="701.28" y="176.51" width="283" height="69.46"/></clipPath></defs><title>404 Page</title><path class="cls-2" d="M711.56,509.17A9.77,9.77,0,0,0,717,507.9a4.56,4.56,0,0,0,1.94-4.11,5.53,5.53,0,0,0-.62-2.74,5.87,5.87,0,0,0-1.66-1.85,10.45,10.45,0,0,0-2.36-1.29l-2.8-1.14a32.71,32.71,0,0,1-3.31-1.49,10.77,10.77,0,0,1-2.49-1.74,6.4,6.4,0,0,1-1.57-2.21,7.33,7.33,0,0,1-.54-2.93,6.89,6.89,0,0,1,2.54-5.8,11.2,11.2,0,0,1,7-2,16.7,16.7,0,0,1,2.36.17,20.18,20.18,0,0,1,2.17.45,16.62,16.62,0,0,1,1.85.63,7.24,7.24,0,0,1,1.4.73l-1,2.45a10.61,10.61,0,0,0-3-1.38,14,14,0,0,0-3.85-.51,11.08,11.08,0,0,0-2.6.28,5.54,5.54,0,0,0-2,.9,4.54,4.54,0,0,0-1.35,1.57,5.54,5.54,0,0,0,0,4.6,5.08,5.08,0,0,0,1.44,1.63,11.45,11.45,0,0,0,2.17,1.25c.83.37,1.74.76,2.71,1.16,1.18.49,2.29,1,3.33,1.46a12.54,12.54,0,0,1,2.74,1.72,7.3,7.3,0,0,1,1.84,2.41,8,8,0,0,1,.69,3.49,7,7,0,0,1-2.81,6.06,12.87,12.87,0,0,1-7.64,2,21,21,0,0,1-5.67-.75,14.87,14.87,0,0,1-1.89-.67,12.36,12.36,0,0,1-1.21-.6l1-2.54a13,13,0,0,0,1.16.6,13.48,13.48,0,0,0,1.72.67,17.82,17.82,0,0,0,2.23.54A16.75,16.75,0,0,0,711.56,509.17Z"/><path class="cls-2" d="M746.17,500a14.38,14.38,0,0,1-.75,4.77,10.6,10.6,0,0,1-2.11,3.66,9.63,9.63,0,0,1-3.2,2.34,9.86,9.86,0,0,1-11.38-2.34,10.58,10.58,0,0,1-2.1-3.66,15.54,15.54,0,0,1,0-9.54,10.87,10.87,0,0,1,2.1-3.68,9.42,9.42,0,0,1,3.21-2.36,10.35,10.35,0,0,1,8.17,0,9.29,9.29,0,0,1,3.2,2.36,10.88,10.88,0,0,1,2.11,3.68A14.38,14.38,0,0,1,746.17,500Zm-3,0a10.49,10.49,0,0,0-1.93-6.64,6.79,6.79,0,0,0-10.49,0,12.3,12.3,0,0,0,0,13.26,6.84,6.84,0,0,0,10.49,0A10.39,10.39,0,0,0,743.2,500Z"/><path class="cls-2" d="M759.8,488.4a15.27,15.27,0,0,1,2.6.22,7.85,7.85,0,0,1,1.7.43l-.56,2.41a5.85,5.85,0,0,0-1.4-.37,15.82,15.82,0,0,0-2.77-.19,12.64,12.64,0,0,0-2.9.26,8.56,8.56,0,0,0-1.44.42v19.48h-2.8V489.87a20.29,20.29,0,0,1,3-1A18.42,18.42,0,0,1,759.8,488.4Z"/><path class="cls-2" d="M775.88,488.4a15.27,15.27,0,0,1,2.6.22,7.85,7.85,0,0,1,1.7.43l-.56,2.41a5.87,5.87,0,0,0-1.39-.37,16,16,0,0,0-2.78-.19,12.64,12.64,0,0,0-2.9.26,8.56,8.56,0,0,0-1.44.42v19.48h-2.79V489.87a19.7,19.7,0,0,1,3-1A18.42,18.42,0,0,1,775.88,488.4Z"/><path class="cls-2" d="M791.36,511.54c-.93-1.76-1.84-3.58-2.71-5.47s-1.7-3.8-2.46-5.74-1.46-3.86-2.1-5.8-1.17-3.83-1.63-5.7h3c.31,1.38.71,2.86,1.2,4.45s1,3.24,1.65,4.93,1.3,3.42,2,5.2,1.56,3.53,2.44,5.25c.64-1.78,1.2-3.45,1.7-5s.95-3.15,1.37-4.71.82-3.16,1.21-4.79.79-3.4,1.2-5.31H801q-1.41,6.24-3.15,12.14a100.34,100.34,0,0,1-3.81,10.78,25.69,25.69,0,0,1-1.68,3.33,9.49,9.49,0,0,1-1.93,2.3,6.68,6.68,0,0,1-2.46,1.34,11.49,11.49,0,0,1-3.3.43,7,7,0,0,1-2-.26,6.05,6.05,0,0,1-1.11-.39l.56-2.32a4.08,4.08,0,0,0,1,.37,6.16,6.16,0,0,0,1.66.23,8.59,8.59,0,0,0,2.18-.25,4.76,4.76,0,0,0,1.75-.89,6.57,6.57,0,0,0,1.4-1.61A15.31,15.31,0,0,0,791.36,511.54Z"/><path class="cls-2" d="M808.48,507a6,6,0,0,1,0,.69v.51a17.38,17.38,0,0,1-.75,5.12,19.52,19.52,0,0,1-2.09,4.6l-2.06-.94a15,15,0,0,0,1.4-4,22.61,22.61,0,0,0,.4-4.32c0-.35,0-.63,0-.86s0-.51-.06-.82Z"/><path class="cls-2" d="M828.39,519h-2.8V489.61a24.76,24.76,0,0,1,3.18-.82,25.52,25.52,0,0,1,4.9-.39,12,12,0,0,1,4.46.8,9.77,9.77,0,0,1,3.44,2.3,10.42,10.42,0,0,1,2.23,3.65,14,14,0,0,1,.8,4.86,15.68,15.68,0,0,1-.67,4.67,10.24,10.24,0,0,1-2,3.65,8.92,8.92,0,0,1-3.16,2.39,10.16,10.16,0,0,1-4.28.86,10.62,10.62,0,0,1-3.8-.62,9.52,9.52,0,0,1-2.34-1.19Zm0-11.95a9.36,9.36,0,0,0,1,.64,9.1,9.1,0,0,0,1.36.65,10.92,10.92,0,0,0,1.67.49,9.07,9.07,0,0,0,1.9.19,7.51,7.51,0,0,0,3.46-.71A6.06,6.06,0,0,0,840,506.4a8.35,8.35,0,0,0,1.24-2.88,15.29,15.29,0,0,0,.39-3.51q0-4.38-2.19-6.73a7.6,7.6,0,0,0-5.81-2.34,22.89,22.89,0,0,0-3.33.19,12.69,12.69,0,0,0-1.91.41Z"/><path class="cls-2" d="M857.41,488.32a10,10,0,0,1,3.72.62,6.41,6.41,0,0,1,2.47,1.72,6.84,6.84,0,0,1,1.38,2.6,12.2,12.2,0,0,1,.43,3.27v14c-.29.08-.7.18-1.25.28s-1.17.21-1.89.32-1.51.21-2.39.28-1.77.11-2.68.11a12.76,12.76,0,0,1-3.25-.39,7.18,7.18,0,0,1-2.58-1.23,5.63,5.63,0,0,1-1.72-2.15,7.34,7.34,0,0,1-.62-3.2,6.44,6.44,0,0,1,.68-3.09,5.91,5.91,0,0,1,1.94-2.13,8.68,8.68,0,0,1,3-1.23,16.84,16.84,0,0,1,3.74-.39c.4,0,.82,0,1.26.07s.88.1,1.29.17.78.14,1.08.22a2.91,2.91,0,0,1,.62.19V497a15.08,15.08,0,0,0-.17-2.25,4.8,4.8,0,0,0-.75-2,4.16,4.16,0,0,0-1.64-1.42,6.07,6.07,0,0,0-2.77-.54,14.21,14.21,0,0,0-3.65.35c-.81.22-1.39.41-1.77.55l-.38-2.45a10.25,10.25,0,0,1,2.25-.64A19.45,19.45,0,0,1,857.41,488.32Zm.26,20.72c1.09,0,2,0,2.86-.1s1.51-.17,2.08-.28v-7.83a8.81,8.81,0,0,0-1.5-.45,13.19,13.19,0,0,0-2.84-.24,16.21,16.21,0,0,0-2.15.15,6.14,6.14,0,0,0-2.06.65,4.22,4.22,0,0,0-1.55,1.35,3.94,3.94,0,0,0-.6,2.28,4.93,4.93,0,0,0,.4,2.11,3.4,3.4,0,0,0,1.17,1.37,5.07,5.07,0,0,0,1.8.76A11.47,11.47,0,0,0,857.67,509Z"/><path class="cls-2" d="M887,508.48a4.85,4.85,0,0,1-.78.5,10.5,10.5,0,0,1-1.27.58,9.83,9.83,0,0,1-1.72.49,10.91,10.91,0,0,1-2.17.2,11.81,11.81,0,0,1-3.74-.6,8.49,8.49,0,0,1-3.16-1.9,9.26,9.26,0,0,1-2.17-3.33,13.29,13.29,0,0,1-.82-5,13,13,0,0,1,.73-4.38,10.47,10.47,0,0,1,2.09-3.51,9.6,9.6,0,0,1,3.31-2.32,11,11,0,0,1,4.41-.84,24.24,24.24,0,0,1,5,.41c1.25.27,2.28.54,3.08.8V509.9q0,5-2.58,7.12c-1.72,1.42-4.32,2.13-7.78,2.13a22.05,22.05,0,0,1-3.9-.32,21,21,0,0,1-3-.76l.55-2.53a13.21,13.21,0,0,0,2.82.81,18.91,18.91,0,0,0,3.59.35q4,0,5.74-1.53T887,510Zm0-16.94a16.79,16.79,0,0,0-1.89-.41,21.42,21.42,0,0,0-3.31-.19,7.87,7.87,0,0,0-3.2.62,6.88,6.88,0,0,0-2.39,1.77,7.68,7.68,0,0,0-1.5,2.71,10.83,10.83,0,0,0-.52,3.46,10.55,10.55,0,0,0,.6,3.76,7.42,7.42,0,0,0,1.57,2.56,5.83,5.83,0,0,0,2.22,1.44,7.38,7.38,0,0,0,2.53.45,10.29,10.29,0,0,0,3.46-.56,7.61,7.61,0,0,0,2.43-1.29Z"/><path class="cls-2" d="M895.85,499.93a14.12,14.12,0,0,1,.84-5.1,11.2,11.2,0,0,1,2.19-3.63A8.61,8.61,0,0,1,902,489a9.31,9.31,0,0,1,3.59-.71,8.4,8.4,0,0,1,6.51,2.66q2.43,2.67,2.43,8.22c0,.23,0,.46,0,.68a6.26,6.26,0,0,1-.06.65H898.82a9.83,9.83,0,0,0,2,6.28q1.89,2.19,6,2.19a12,12,0,0,0,3.61-.43,16.39,16.39,0,0,0,1.94-.73l.51,2.41a11.27,11.27,0,0,1-2.25.81,14.15,14.15,0,0,1-3.9.48,13,13,0,0,1-5-.86,9,9,0,0,1-3.4-2.41,9.49,9.49,0,0,1-1.94-3.68A17.13,17.13,0,0,1,895.85,499.93Zm15.78-1.77a8.84,8.84,0,0,0-1.63-5.41,5.31,5.31,0,0,0-4.39-1.94,5.88,5.88,0,0,0-2.69.6,7,7,0,0,0-2.06,1.62,7.39,7.39,0,0,0-1.38,2.34,10,10,0,0,0-.58,2.79Z"/><path class="cls-2" d="M930.55,489.61q1.25-.35,3.36-.78a26.75,26.75,0,0,1,5.16-.43,10.84,10.84,0,0,1,4.23.73,6.56,6.56,0,0,1,2.71,2.09,8.47,8.47,0,0,1,1.44,3.25,18.62,18.62,0,0,1,.43,4.17v12.42h-2.79V499.54a20.58,20.58,0,0,0-.33-4,6.54,6.54,0,0,0-1.07-2.66,4.16,4.16,0,0,0-2-1.49,9,9,0,0,0-3.07-.45,22.56,22.56,0,0,0-3.42.22,10.67,10.67,0,0,0-1.87.38v19.52h-2.8Z"/><path class="cls-2" d="M974,500a14.38,14.38,0,0,1-.75,4.77,10.6,10.6,0,0,1-2.11,3.66,9.63,9.63,0,0,1-3.2,2.34,9.86,9.86,0,0,1-11.38-2.34,10.58,10.58,0,0,1-2.1-3.66,15.54,15.54,0,0,1,0-9.54,10.87,10.87,0,0,1,2.1-3.68,9.42,9.42,0,0,1,3.21-2.36,10.35,10.35,0,0,1,8.17,0,9.29,9.29,0,0,1,3.2,2.36,10.88,10.88,0,0,1,2.11,3.68A14.38,14.38,0,0,1,974,500Zm-3,0a10.49,10.49,0,0,0-1.93-6.64,6.79,6.79,0,0,0-10.49,0,12.3,12.3,0,0,0,0,13.26,6.84,6.84,0,0,0,10.49,0A10.39,10.39,0,0,0,971,500Z"/><path class="cls-2" d="M982.67,488.83h8.85v2.37h-8.85V503a11.81,11.81,0,0,0,.32,3.08,4.15,4.15,0,0,0,.92,1.82,2.91,2.91,0,0,0,1.47.87,7.93,7.93,0,0,0,1.89.21,8.25,8.25,0,0,0,2.84-.41,12.17,12.17,0,0,0,1.67-.75l.69,2.32a9.89,9.89,0,0,1-2.11.88,10.36,10.36,0,0,1-3.26.5,9.73,9.73,0,0,1-3.47-.54,5,5,0,0,1-2.23-1.63,6.65,6.65,0,0,1-1.18-2.74,18.76,18.76,0,0,1-.35-3.86V482.3l2.8-.52Z"/><path class="cls-2" d="M1014.66,477.7a12.49,12.49,0,0,1,2.94.28,6.06,6.06,0,0,1,1.49.49l-.56,2.41a8.59,8.59,0,0,0-1.4-.45,9.56,9.56,0,0,0-2.34-.24c-2,0-3.39.5-4.24,1.51s-1.27,2.6-1.27,4.81v2.32h9v2.37h-9v19.86h-2.79V486.42c0-2.89.66-5.07,2-6.53S1011.88,477.7,1014.66,477.7Z"/><path class="cls-2" d="M1041.62,500a14.38,14.38,0,0,1-.75,4.77,10.76,10.76,0,0,1-2.11,3.66,9.63,9.63,0,0,1-3.2,2.34,10.35,10.35,0,0,1-8.17,0,9.67,9.67,0,0,1-3.21-2.34,10.58,10.58,0,0,1-2.1-3.66,15.35,15.35,0,0,1,0-9.54,10.87,10.87,0,0,1,2.1-3.68,9.32,9.32,0,0,1,3.21-2.36,10.35,10.35,0,0,1,8.17,0,9.29,9.29,0,0,1,3.2,2.36,11.05,11.05,0,0,1,2.11,3.68A14.38,14.38,0,0,1,1041.62,500Zm-3,0a10.49,10.49,0,0,0-1.93-6.64,6.8,6.8,0,0,0-10.5,0,12.35,12.35,0,0,0,0,13.26,6.85,6.85,0,0,0,10.5,0A10.39,10.39,0,0,0,1038.65,500Z"/><path class="cls-2" d="M1064.75,510.29c-.83.23-2,.49-3.35.77a26.12,26.12,0,0,1-5.16.43,10.42,10.42,0,0,1-4.17-.73,6.69,6.69,0,0,1-2.71-2.06,8.29,8.29,0,0,1-1.48-3.23,17.46,17.46,0,0,1-.46-4.17V488.83h2.8V500.4a19.75,19.75,0,0,0,.34,4,6.41,6.41,0,0,0,1.12,2.64,4.33,4.33,0,0,0,2,1.47,8.72,8.72,0,0,0,3,.45,23,23,0,0,0,3.44-.22,9.69,9.69,0,0,0,1.85-.38V488.83h2.79Z"/><path class="cls-2" d="M1072.15,489.61c.83-.23,1.95-.49,3.35-.78a26.9,26.9,0,0,1,5.16-.43,10.93,10.93,0,0,1,4.24.73,6.62,6.62,0,0,1,2.71,2.09,8.62,8.62,0,0,1,1.44,3.25,19.22,19.22,0,0,1,.43,4.17v12.42h-2.8V499.54a21.49,21.49,0,0,0-.32-4,6.68,6.68,0,0,0-1.07-2.66,4.25,4.25,0,0,0-2-1.49,9.07,9.07,0,0,0-3.08-.45,22.56,22.56,0,0,0-3.42.22,10.9,10.9,0,0,0-1.87.38v19.52h-2.79Z"/><path class="cls-2" d="M1114.29,510.38a24.15,24.15,0,0,1-8.09,1.2,12.19,12.19,0,0,1-4.45-.79,9.71,9.71,0,0,1-3.44-2.31,10.42,10.42,0,0,1-2.23-3.65,13.91,13.91,0,0,1-.8-4.86,15.41,15.41,0,0,1,.67-4.67,10.58,10.58,0,0,1,2-3.67,8.94,8.94,0,0,1,3.16-2.41,10.22,10.22,0,0,1,4.28-.86,10.71,10.71,0,0,1,3.81.62,9.92,9.92,0,0,1,2.34,1.19v-12l2.8-.51Zm-2.8-17.5a8.11,8.11,0,0,0-1-.65,9.48,9.48,0,0,0-1.35-.65,11.4,11.4,0,0,0-1.68-.49,8.91,8.91,0,0,0-1.89-.19,7.35,7.35,0,0,0-3.46.73,6.39,6.39,0,0,0-2.26,1.95,8.33,8.33,0,0,0-1.25,2.89,15.78,15.78,0,0,0-.38,3.5c0,2.92.73,5.17,2.19,6.73a7.59,7.59,0,0,0,5.81,2.34,23,23,0,0,0,3.33-.19,13,13,0,0,0,1.91-.41Z"/><path class="cls-2" d="M780.33,313.25V384h12.58v20.74H780.33v26.35H755.51V404.71H704.68V386.18q3.74-7.47,9.35-16.91t12.49-19.38q6.88-9.94,14.54-19.47a213.67,213.67,0,0,1,15.3-17.17Zm-24.82,30.94q-6.63,8.67-14.11,18.87A129.34,129.34,0,0,0,728.82,384h26.69Z"/><path class="cls-2" d="M888.62,371.9q0,29.76-11.31,45.65t-31.19,15.89q-19.89,0-31.2-15.89t-11.3-45.65a104.21,104.21,0,0,1,3-26.18,57.67,57.67,0,0,1,8.59-19.21,38.24,38.24,0,0,1,13.43-11.9,37.27,37.27,0,0,1,17.51-4.08q19.89,0,31.19,15.9T888.62,371.9Zm-25.84,0a139.8,139.8,0,0,0-.85-16.06,58.51,58.51,0,0,0-2.72-12.5,19.5,19.5,0,0,0-5.1-8.16,11.59,11.59,0,0,0-8-2.89,11.27,11.27,0,0,0-7.91,2.89,20.55,20.55,0,0,0-5.1,8.16,54.32,54.32,0,0,0-2.8,12.5,137.57,137.57,0,0,0-.85,16.06,139.68,139.68,0,0,0,.85,16.15,54.22,54.22,0,0,0,2.8,12.58,20.4,20.4,0,0,0,5.1,8.16,11.23,11.23,0,0,0,7.91,2.89,11.55,11.55,0,0,0,8-2.89,19.37,19.37,0,0,0,5.1-8.16,58.36,58.36,0,0,0,2.72-12.58A142,142,0,0,0,862.78,371.9Z"/><path class="cls-2" d="M973.45,313.25V384H986v20.74H973.45v26.35H948.63V404.71H897.8V386.18q3.74-7.47,9.35-16.91t12.49-19.38q6.89-9.94,14.54-19.47a213.67,213.67,0,0,1,15.3-17.17Zm-24.82,30.94q-6.63,8.67-14.11,18.87A129.34,129.34,0,0,0,921.94,384h26.69Z"/><g class="cls-3"><path class="cls-2" d="M726.43,213.62a7.14,7.14,0,0,0-6.23-12.85L705,208c-.08,1.05-.16,2.1-.16,3.16a31.63,31.63,0,0,0,2.26,11.72l19.33-9.3h0"/></g><g class="cls-3"><path class="cls-2" d="M737.1,219.2a7.14,7.14,0,0,0-9.54-3.31h0l-19.41,9.37a31.54,31.54,0,0,0,9.62,11.24l16-7.76a7.14,7.14,0,0,0,3.32-9.54"/></g><g class="cls-3"><path class="cls-4" d="M732,202.87a4,4,0,0,1,.4,1,7.14,7.14,0,0,0,8.65,1.86h0l21.67-10.51a32.38,32.38,0,0,0-10.67-10.76l-17.22,8.41a7.13,7.13,0,0,0-3.72,8.49,9.63,9.63,0,0,1,.89,1.46"/></g><g class="cls-3"><path class="cls-4" d="M742.19,208a7.23,7.23,0,0,0-3.72,8.49c.33.49.65,1,1,1.54a3.77,3.77,0,0,1,.41,1.05A7.14,7.14,0,0,0,748.5,221l18.76-9.14v-.64A30.08,30.08,0,0,0,764,197.45L742.19,208h0"/></g><g class="cls-3"><path class="cls-2" d="M762.81,195.27l-21.75,10.51h0a7.29,7.29,0,0,1-8.65-1.86,9.79,9.79,0,0,1,.4,1.45,8.85,8.85,0,0,1,.17,2.11,10,10,0,0,1-1.7,5.17,9.52,9.52,0,0,1,4.61,1.54,17.86,17.86,0,0,1,1.45,1.13,8.16,8.16,0,0,1,1.13,1.29,7.27,7.27,0,0,1,3.72-8.49h0L764,197.53c-.4-.81-.8-1.54-1.21-2.26"/></g><g class="cls-3"><path class="cls-2" d="M751.17,184c-.65-.33-1.21-.65-1.86-1a30.73,30.73,0,0,0-13.34-3,31.29,31.29,0,0,0-30.57,25l13.67-6.63a9.69,9.69,0,0,1,9.62.65,12.82,12.82,0,0,1,1.37,1.05,14.34,14.34,0,0,1,1.06,1.21,7.26,7.26,0,0,1,3.72-8.49l17.22-8.33a9,9,0,0,0-.89-.48"/></g><g class="cls-3"><path class="cls-2" d="M767.18,211.84,748.42,221a7.25,7.25,0,0,1-8.65-1.86,13.72,13.72,0,0,1,.48,2.34v.89c.08.08.16.17.25.17h0a8.76,8.76,0,0,0,8.89.72l17.46-8.49c.09-.56.09-1.05.17-1.61V213a2.57,2.57,0,0,0,.16-1.13"/></g><g class="cls-3"><path class="cls-4" d="M738.47,216.53a6.14,6.14,0,0,0,.41,1.13,7.25,7.25,0,0,0,1,1.46,7.71,7.71,0,0,0-.41-1.05c-.32-.57-.64-1-1-1.54"/></g><g class="cls-3"><path class="cls-4" d="M732.41,203.92c-.16-.32-.24-.65-.4-1a6.27,6.27,0,0,0-1-1.54,7,7,0,0,0,.41,1.13,11.55,11.55,0,0,0,1,1.46"/></g><g class="cls-3"><path class="cls-4" d="M740.33,222.35V222l-.4-.65-.89-.24-.08.16a9.55,9.55,0,0,1,1.37,1"/></g><g class="cls-3"><path class="cls-4" d="M749.55,223.24a9,9,0,0,1-9.22-.89,8.16,8.16,0,0,1-1.29-1.13v-.16l.89.24.32.08a11.17,11.17,0,0,0-.48-2.34,10.56,10.56,0,0,1-1-1.46,4.56,4.56,0,0,1-.41-1.13,8.16,8.16,0,0,0-1.13-1.29,15.87,15.87,0,0,0-1.45-1.13,10.43,10.43,0,0,0-4.61-1.54,9.88,9.88,0,0,0,1.69-5.18,9.34,9.34,0,0,0-.16-2.1,9.79,9.79,0,0,0-.4-1.45,11.55,11.55,0,0,1-1-1.46,6.42,6.42,0,0,1-.41-1.13A12.59,12.59,0,0,0,729.9,200a13.22,13.22,0,0,0-1.29-1.05,9.5,9.5,0,0,0-9.62-.65l-13.59,6.79c-.16,1-.32,2-.48,3.07l15.2-7.35a7.14,7.14,0,0,1,9.54,3.31,7.26,7.26,0,0,1-3.31,9.62h0L707.1,223a18.75,18.75,0,0,0,1,2.26l19.33-9.37h0a7.14,7.14,0,1,1,6.22,12.85l-16,7.76c.41.25.73.57,1.14.81a6.87,6.87,0,0,0,1.37.81A30.72,30.72,0,0,0,736,242.41a31.24,31.24,0,0,0,31-27.66Z"/></g><g class="cls-3"><path class="cls-4" d="M740.33,222v-.57l-.32-.08Z"/></g><g class="cls-3"><path class="cls-2" d="M736,176.51a34.69,34.69,0,1,0,34.68,34.69A34.68,34.68,0,0,0,736,176.51m0,67.92a33.12,33.12,0,1,1,23.45-9.7,33.13,33.13,0,0,1-23.45,9.7"/></g><g class="cls-3"><path class="cls-2" d="M814.24,183.38c-.33-.08-.65-.16-1.14-.24a19.73,19.73,0,0,0-3.55,0,8.36,8.36,0,0,0-1.13.24.77.77,0,0,0-.57.41,1.14,1.14,0,0,0-.16.48v35.25a1.13,1.13,0,0,0,.16.49c.08.16.32.24.57.32s.64.16,1.13.25a19.73,19.73,0,0,0,3.55,0,3.74,3.74,0,0,0,1.14-.25,1.2,1.2,0,0,0,.64-.32,1.15,1.15,0,0,0,.17-.49V184.27a1.16,1.16,0,0,0-.17-.48,2,2,0,0,0-.64-.41m31.21,10.92c-.33-.08-.65-.17-1.13-.25a11.64,11.64,0,0,0-1.78-.08,11.5,11.5,0,0,0-1.78.08,8.07,8.07,0,0,0-1.13.25,1.12,1.12,0,0,0-.57.32c-.08.16-.16.24-.16.4-.16-.08-.24-.08-.41-.16a19.85,19.85,0,0,0-6.14-.89,18.64,18.64,0,0,0-6.31,1,12.46,12.46,0,0,0-4.53,2.83,11,11,0,0,0-2.66,4.37,17.45,17.45,0,0,0-.89,5.58,17.93,17.93,0,0,0,.8,5.66,10.72,10.72,0,0,0,2.51,4.12,11,11,0,0,0,4.29,2.59,19.55,19.55,0,0,0,6.14.89,19.2,19.2,0,0,0,6.39-1,8.57,8.57,0,0,0,.81-.32.61.61,0,0,0,.16.32c.08.16.32.24.57.32s.64.16,1.13.25a11.5,11.5,0,0,0,1.78.08,11.64,11.64,0,0,0,1.78-.08,3.66,3.66,0,0,0,1.13-.25c.32-.08.48-.16.56-.32a1.15,1.15,0,0,0,.17-.49V195.19a1.15,1.15,0,0,0-.17-.49c-.08-.16-.32-.24-.56-.4M838,211a6.13,6.13,0,0,1-1.21,2.51,5.7,5.7,0,0,1-2,1.62,6.46,6.46,0,0,1-2.91.56,8.42,8.42,0,0,1-3.07-.56,5,5,0,0,1-1.94-1.7,8.38,8.38,0,0,1-1.05-2.59,13.83,13.83,0,0,1-.32-3.23,14.1,14.1,0,0,1,.4-3.4,7,7,0,0,1,1.21-2.59,5.72,5.72,0,0,1,2-1.61,6.4,6.4,0,0,1,2.92-.57,6.84,6.84,0,0,1,3.07.65,4.92,4.92,0,0,1,1.94,1.7,8.22,8.22,0,0,1,1.05,2.58,13.91,13.91,0,0,1,.32,3.24A14.08,14.08,0,0,1,838,211M873,198a8.5,8.5,0,0,0-3.32-2.83,10.29,10.29,0,0,0-4.93-1.06,20,20,0,0,0-2.26.17,19.73,19.73,0,0,0-2.1.56,13.09,13.09,0,0,0-2,1,17.75,17.75,0,0,0-2,1.54V184.27a1.14,1.14,0,0,0-.16-.48,2,2,0,0,0-.65-.41c-.32-.08-.64-.16-1.13-.24a11.5,11.5,0,0,0-1.78-.08,11.64,11.64,0,0,0-1.78.08,9.12,9.12,0,0,0-1.13.24.77.77,0,0,0-.56.41,1.14,1.14,0,0,0-.16.48v35.25a1.13,1.13,0,0,0,.16.49.73.73,0,0,0,.48.32,3.05,3.05,0,0,0,1,.16c.41,0,.89.09,1.54.09a7.86,7.86,0,0,0,1.53-.09,3.12,3.12,0,0,0,1-.16,1.29,1.29,0,0,0,.56-.32,1.13,1.13,0,0,0,.16-.49v-2.58a15.29,15.29,0,0,0,2.11,1.86,11.07,11.07,0,0,0,2.1,1.29,11.64,11.64,0,0,0,2.18.73,12.73,12.73,0,0,0,2.51.24,11.14,11.14,0,0,0,4.77-1,9.94,9.94,0,0,0,3.56-2.75A12.37,12.37,0,0,0,874.8,213a21,21,0,0,0,.81-5.74,19.57,19.57,0,0,0-.57-5,16.58,16.58,0,0,0-2-4.2m-5.58,12.45a6.2,6.2,0,0,1-1,2.42,5,5,0,0,1-1.7,1.78,3.84,3.84,0,0,1-2.42.65,5.24,5.24,0,0,1-3-1,15.08,15.08,0,0,1-3-2.75v-7.92a12.2,12.2,0,0,1,1.7-1.78,16.94,16.94,0,0,1,1.54-1.22,5.74,5.74,0,0,1,1.45-.64,4.55,4.55,0,0,1,1.46-.16,4.86,4.86,0,0,1,2.51.64,5,5,0,0,1,1.61,1.78,7.53,7.53,0,0,1,.89,2.51,17.85,17.85,0,0,1,.24,2.91,10.76,10.76,0,0,1-.32,2.75m27.65-10.11a3,3,0,0,0,.17-1c0-.4.08-1,.08-1.62v-1.53c0-.41-.08-.65-.08-.81a1.25,1.25,0,0,0-.17-.49c-.08-.08-.16-.24-.24-.32a1.3,1.3,0,0,0-.48-.24l-.81-.25c-.33-.08-.65-.08-.89-.16h-.81a10.1,10.1,0,0,0-1.62.16,8.54,8.54,0,0,0-1.7.73,12,12,0,0,0-1.77,1.38,13,13,0,0,0-1.95,2.18v-3a1.22,1.22,0,0,0-.16-.49.73.73,0,0,0-.48-.32,8.55,8.55,0,0,0-1-.24,9,9,0,0,0-1.54-.08,8.31,8.31,0,0,0-1.53.08,2.8,2.8,0,0,0-1,.24,1.27,1.27,0,0,0-.57.32,1.22,1.22,0,0,0-.16.49v23.93a1.18,1.18,0,0,0,.16.49c.08.16.32.24.65.32s.64.16,1.13.24a11.5,11.5,0,0,0,1.78.08,11.64,11.64,0,0,0,1.78-.08,3.43,3.43,0,0,0,1.13-.24c.24-.08.48-.16.56-.32a1.2,1.2,0,0,0,.17-.49V204.65c.56-.81,1.05-1.46,1.53-2a9.8,9.8,0,0,1,1.38-1.29,5.63,5.63,0,0,1,1.29-.73,3.26,3.26,0,0,1,1.21-.24,3.94,3.94,0,0,1,1,.08,3.7,3.7,0,0,0,.81.16,5.6,5.6,0,0,1,.65.25,1.36,1.36,0,0,0,.56.08,1.13,1.13,0,0,0,.49-.16c.16,0,.32-.17.4-.41m27.33-5.17a1.13,1.13,0,0,0-.16-.49c-.08-.16-.32-.24-.64-.32s-.65-.16-1.14-.25a19.73,19.73,0,0,0-3.55,0,10.66,10.66,0,0,0-1.14.25,1.12,1.12,0,0,0-.56.32c-.08.08-.08.16-.16.24a19.38,19.38,0,0,0-6.07-.89,18.68,18.68,0,0,0-6.31,1,12.42,12.42,0,0,0-4.52,2.83,10.9,10.9,0,0,0-2.67,4.37,17.45,17.45,0,0,0-.89,5.58,17.64,17.64,0,0,0,.81,5.66,10.58,10.58,0,0,0,2.5,4.12,10.91,10.91,0,0,0,4.29,2.59,19.6,19.6,0,0,0,6.14.89,19.2,19.2,0,0,0,6.39-1,1.39,1.39,0,0,1,.41-.16l.08.08c.08.16.32.24.56.32s.65.16,1.14.25a19.73,19.73,0,0,0,3.55,0,3.59,3.59,0,0,0,1.13-.25,1.2,1.2,0,0,0,.65-.32,1.13,1.13,0,0,0,.16-.49V195.19ZM915,209.5c-.08.56-.16,1.05-.24,1.53a6,6,0,0,1-1.21,2.51,5.67,5.67,0,0,1-2,1.62,6.52,6.52,0,0,1-2.91.56,8.43,8.43,0,0,1-3.08-.56,5.07,5.07,0,0,1-1.94-1.7,8.63,8.63,0,0,1-1.05-2.59,13.83,13.83,0,0,1-.32-3.23,14.1,14.1,0,0,1,.4-3.4,7,7,0,0,1,1.22-2.59,5.55,5.55,0,0,1,2-1.61,6.38,6.38,0,0,1,2.91-.57,6.84,6.84,0,0,1,3.07.65,4.85,4.85,0,0,1,1.94,1.7,8,8,0,0,1,1.05,2.58,7.22,7.22,0,0,1,.16,1.3Zm52.08-9.22a7.71,7.71,0,0,0-1.62-3.23,8.21,8.21,0,0,0-2.91-2.19,10.51,10.51,0,0,0-4.45-.81,9.72,9.72,0,0,0-2.26.25,7.79,7.79,0,0,0-2.19.81,13.91,13.91,0,0,0-2.26,1.37,23.4,23.4,0,0,0-2.34,2,7,7,0,0,0-1.22-1.78,6.07,6.07,0,0,0-1.78-1.37,8.46,8.46,0,0,0-2.34-.89,11.18,11.18,0,0,0-2.91-.33,10,10,0,0,0-4.53,1.06,16.59,16.59,0,0,0-4.37,3.23v-2.75a1.14,1.14,0,0,0-.16-.48.71.71,0,0,0-.48-.33,9.14,9.14,0,0,0-1-.24,9,9,0,0,0-1.54-.08,8.49,8.49,0,0,0-1.54.08,2.92,2.92,0,0,0-1,.24,1.21,1.21,0,0,0-.56.33,1.14,1.14,0,0,0-.16.48V219.6a1.13,1.13,0,0,0,.16.49c.08.16.32.24.64.32s.65.17,1.14.25a19.73,19.73,0,0,0,3.55,0,3.22,3.22,0,0,0,1.14-.25c.32-.08.48-.16.56-.32a.6.6,0,0,0,.16-.49v-16a17.44,17.44,0,0,1,2.92-2.75,4.42,4.42,0,0,1,4.6-.57,3,3,0,0,1,1.3,1.13,5.71,5.71,0,0,1,.73,1.7,9.09,9.09,0,0,1,.24,2.18v14.15a1.18,1.18,0,0,0,.16.49c.08.16.32.24.57.32s.64.16,1.13.24a10.24,10.24,0,0,0,1.78.09,10.36,10.36,0,0,0,1.78-.09,3.49,3.49,0,0,0,1.13-.24c.32-.08.48-.16.56-.32a1.2,1.2,0,0,0,.17-.49V203.6a14.73,14.73,0,0,1,3-2.75,4.5,4.5,0,0,1,2.67-1,4.22,4.22,0,0,1,1.85.4,3.43,3.43,0,0,1,1.3,1.13,9,9,0,0,1,.81,1.7,9.09,9.09,0,0,1,.24,2.18v14.15a1.18,1.18,0,0,0,.16.49c.08.16.32.24.57.32s.64.16,1.13.24a10.75,10.75,0,0,0,1.86.09,10.3,10.3,0,0,0,1.78-.09,4,4,0,0,0,1.13-.24c.24-.08.49-.16.57-.32a1.18,1.18,0,0,0,.16-.49v-15.2a7.36,7.36,0,0,0-.08-4M788.77,189.2h13.66c1.7,0,1.7-1.37,1.7-3.07s0-3.07-1.7-3.07H788.77a10.87,10.87,0,0,0-7.44,18.84,11.08,11.08,0,0,0-3.48,7.92,10.87,10.87,0,0,0,10.92,10.92h13.66c1.7,0,1.7-1.38,1.7-3.08s0-3.07-1.7-3.07H788.77a4.77,4.77,0,1,1,0-9.54h13.66c1.7,0,1.7-1.37,1.7-3.07v-.16c0-1.7,0-3.08-1.7-3.08H788.77A4.73,4.73,0,0,1,784,194a4.78,4.78,0,0,1,4.77-4.77"/></g><g class="cls-3"><path class="cls-4" d="M775.26,230s.81-.25,2.35-.57,3.8-.81,6.63-1.29c1.45-.25,3.07-.49,4.77-.73.89-.08,1.78-.24,2.75-.41s1.94-.24,2.91-.32c4-.48,8.65-.89,13.66-1.21,2.51-.16,5.1-.25,7.85-.41l8.41-.24c2.91,0,5.82,0,8.89-.08s6.15.08,9.22.16,6.31.24,9.54.32c.81,0,1.62.09,2.43.09s1.61.08,2.42.16c1.62.08,3.24.24,4.93.32,3.32.16,6.63.41,10,.65l9.94.73c6.63.48,13.35,1,19.9,1.29s13,.73,19.24.81,12.29.08,18-.24a104.36,104.36,0,0,0,15.93-1.95A53.15,53.15,0,0,0,967.78,223a28.6,28.6,0,0,0,8.41-6.06,23.45,23.45,0,0,0,3.72-5.58,5.31,5.31,0,0,0,.41-1l.24-.73c.16-.4.24-.57.24-.57a2.77,2.77,0,0,0-.16.57,3.63,3.63,0,0,0-.24.73c-.08.24-.24.56-.41,1a20.75,20.75,0,0,1-3.47,5.9,27.87,27.87,0,0,1-8.33,6.63,53.9,53.9,0,0,1-12.94,4.69A117.11,117.11,0,0,1,939.16,231c-5.74.48-11.88.64-18.11.64s-12.78-.24-19.33-.56-13.26-.81-20-1.22-13.34-1.05-19.89-1.45-13-.81-19.24-1.13c-3.16-.08-6.23-.25-9.22-.33s-6-.08-8.81-.16h-8.33c-2.67.08-5.34.08-7.76.16-5,.16-9.63.41-13.67.65l-2.91.24-2.75.24c-1.78.17-3.39.33-4.85.49s-2.75.32-3.88.49-2.1.32-2.83.4c-1.54.32-2.35.57-2.35.57"/></g><g class="cls-3"><path class="cls-2" d="M775.18,233.59s.81-.24,2.35-.56,3.8-.73,6.71-1.13c1.45-.25,3.07-.41,4.85-.65.89-.08,1.78-.24,2.75-.33s1.94-.16,3-.32c4.12-.4,8.73-.73,13.75-1,2.5-.16,5.17-.24,7.84-.32s5.5-.08,8.41-.16h8.89l9.3.24c3.16.08,6.39.24,9.62.4s6.55.41,9.87.57c6.63.4,13.34,1,20,1.45s13.42,1,20,1.3,13.1.64,19.33.72,12.37,0,18.11-.4a114.75,114.75,0,0,0,16-2,58.41,58.41,0,0,0,12.94-4.12,30.93,30.93,0,0,0,8.57-6,19.21,19.21,0,0,0,2.5-3c.65-1,1.13-1.78,1.54-2.43a8.73,8.73,0,0,1,.48-.88,2.76,2.76,0,0,0,.33-.73c.16-.41.24-.57.24-.57s-.08.16-.24.57a3.63,3.63,0,0,0-.24.73,4.86,4.86,0,0,0-.41,1,22.47,22.47,0,0,1-3.8,5.74,31.09,31.09,0,0,1-8.49,6.46,52.91,52.91,0,0,1-13,4.69,104.39,104.39,0,0,1-16.17,2.51q-8.73.74-18.19.73c-6.31,0-12.86-.16-19.49-.49s-13.34-.72-20.05-1.21-13.42-1-20-1.45-13.1-.81-19.33-1.14c-3.15-.16-6.22-.24-9.22-.32l-8.89-.24c-2.91,0-5.66-.08-8.41-.08s-5.34,0-7.84.08c-5,.08-9.62.24-13.75.48-1,.08-2,.08-3,.16s-1.86.17-2.75.17c-1.78.08-3.39.24-4.85.4-2.91.32-5.17.57-6.79.81s-2.43.4-2.43.4"/></g><g class="cls-3"><path class="cls-5" d="M775.1,238s.81-.24,2.35-.57c.81-.16,1.78-.32,2.91-.56s2.42-.41,3.88-.65,3.07-.4,4.85-.65c.89-.08,1.78-.24,2.75-.32s1.94-.16,3-.32c2-.24,4.29-.41,6.55-.57s4.77-.32,7.28-.4,5.17-.25,7.92-.33,5.58-.08,8.49-.16h9l9.38.24c3.15.17,6.38.25,9.7.41s6.55.4,9.94.57c6.63.4,13.43,1,20.14,1.45s13.5.89,20.13,1.29,13.18.65,19.49.65,12.45,0,18.19-.4a120.36,120.36,0,0,0,16.17-2,59.91,59.91,0,0,0,13.1-4.13,29.93,29.93,0,0,0,8.73-5.9,23,23,0,0,0,4.13-5.42l.48-1a2.79,2.79,0,0,0,.33-.73c.16-.4.24-.56.24-.56s-.08.16-.24.56a4,4,0,0,0-.25.73,6,6,0,0,0-.4,1,22.87,22.87,0,0,1-3.88,5.74,31.83,31.83,0,0,1-8.65,6.39,54.65,54.65,0,0,1-13.18,4.69,109.2,109.2,0,0,1-16.34,2.51c-5.82.48-12,.72-18.35.81s-12.94-.17-19.65-.41-13.42-.73-20.21-1.21-13.51-1-20.14-1.46c-3.31-.24-6.63-.48-9.86-.64s-6.47-.33-9.62-.57-6.31-.24-9.3-.4l-8.9-.25c-2.91,0-5.74-.08-8.49-.08s-5.33,0-7.92.08q-7.64.12-13.83.49c-1,.08-2,.08-3,.16s-1.86.16-2.75.16c-1.78.08-3.39.24-4.85.41-2.91.32-5.26.56-6.79.8-1.62.41-2.51.57-2.51.57"/></g><ellipse class="cls-6" cx="376.56" cy="575.62" rx="125.5" ry="14.69"/><path class="cls-7" d="M283.12,219.36a6.2,6.2,0,0,0-2.81.68,9.29,9.29,0,0,0-10-3.48,9.38,9.38,0,0,0-13.48-6.43,14.8,14.8,0,0,0,.41-3.41,15,15,0,0,0-15-15,14.7,14.7,0,0,0-4.17.6,15,15,0,0,0-25.59-8.62,22.31,22.31,0,0,0-36.81,10.53,13.34,13.34,0,0,0-1.56-.09,15,15,0,0,0-13.46,8.44,9.5,9.5,0,0,0-3.25-.58,9.39,9.39,0,0,0-9.3,8.06,9.29,9.29,0,0,0-4.76-1.31,9.42,9.42,0,0,0-9.21,7.47,9.23,9.23,0,0,0-2.48-.35,9.39,9.39,0,0,0-7.56,3.83,6.13,6.13,0,0,0-2.81-.67,6.25,6.25,0,0,0,0,12.5,6.13,6.13,0,0,0,2.81-.67A9.38,9.38,0,0,0,137,233.05a9.38,9.38,0,0,0,14.59,2.75,9.4,9.4,0,0,0,16.13,1.09,9.35,9.35,0,0,0,11.49-2.59,9.39,9.39,0,0,0,9.25,7.8,9.29,9.29,0,0,0,3.39-.64,22.32,22.32,0,0,0,35-5.31,9.29,9.29,0,0,0,5.81,2,9.39,9.39,0,0,0,4.13-1,9.39,9.39,0,0,0,16.12-1.09,9.39,9.39,0,0,0,14.6-2.75,9.39,9.39,0,0,0,12.88-2.17,6.25,6.25,0,0,0,9.07-5.58A6.26,6.26,0,0,0,283.12,219.36Z"/><path class="cls-8" d="M289.36,225.31a6.23,6.23,0,0,0-9.05-5.27,9.29,9.29,0,0,0-10-3.48,9.38,9.38,0,0,0-13.48-6.43,14.8,14.8,0,0,0,.41-3.41,15,15,0,0,0-15-15,14.7,14.7,0,0,0-4.17.6,15,15,0,0,0-25.59-8.62,22.31,22.31,0,0,0-36.81,10.53,13.34,13.34,0,0,0-1.56-.09,15,15,0,0,0-13.46,8.44,9.5,9.5,0,0,0-3.25-.58,9.39,9.39,0,0,0-9.3,8.06,9.29,9.29,0,0,0-4.76-1.31,9.42,9.42,0,0,0-9.21,7.47,9.23,9.23,0,0,0-2.48-.35,9.39,9.39,0,0,0-7.56,3.83,6.13,6.13,0,0,0-2.81-.67A6.25,6.25,0,0,0,115,225.3H289.36Z"/><path class="cls-9" d="M287.84,222.12l-.24,0a7.5,7.5,0,0,0-11.38-4.48,11.66,11.66,0,0,0-16.85-5.33A6.93,6.93,0,0,0,250.5,207a11.67,11.67,0,0,0-22,1.46,8.31,8.31,0,0,0-2.88-2.68c0-.32,0-.64,0-1a9.27,9.27,0,0,0-18.08-2.86,11.67,11.67,0,0,0-6.3,2.05,11.68,11.68,0,0,0-20.92.9,9.22,9.22,0,0,0-11.41,2,9.23,9.23,0,0,0-11.59,2.59,11.66,11.66,0,0,0-18.21,6.2,9.11,9.11,0,0,0-3.15-.56,9.26,9.26,0,0,0-5.86,2.08,9.27,9.27,0,1,0-5.85,16.45h.11a5.85,5.85,0,0,0,11.49,0H136a9.28,9.28,0,0,0,4-.9,9.24,9.24,0,0,0,15.43.88,5.61,5.61,0,0,0,1.84.33,5.85,5.85,0,0,0,5.77-5h.09a11.65,11.65,0,0,0,16.76,2.42,5.81,5.81,0,0,0,9.87,1.24,11.67,11.67,0,0,0,10,5.7,12.24,12.24,0,0,0,1.92-.17,9.26,9.26,0,0,0,17.91-3.32c0-.16,0-.32,0-.48l.39-.11a11.67,11.67,0,0,0,20.77-1.87,11.6,11.6,0,0,0,4,2,11.67,11.67,0,0,0,22.2-.55,11.67,11.67,0,0,0,8-4.69,7.49,7.49,0,0,0,8.92,1.45,5.2,5.2,0,1,0,4-8.49Z"/><path class="cls-10" d="M195.9,212.68a5.11,5.11,0,0,1-.27,2.08,5.62,5.62,0,0,1-1.12,1.84,5.39,5.39,0,0,1-7.84,0,5.48,5.48,0,0,1-1.13-1.84,5.1,5.1,0,0,1-.26-2.08,5.58,5.58,0,0,0,1.72,3.59,5.28,5.28,0,0,0,7.18,0A5.68,5.68,0,0,0,195.9,212.68Z"/><path class="cls-10" d="M216.55,221.34a7,7,0,0,1-.36,2.82,7.38,7.38,0,0,1-1.52,2.47,7.27,7.27,0,0,1-10.59,0,7.51,7.51,0,0,1-1.51-2.47,6.82,6.82,0,0,1-.36-2.82,7.48,7.48,0,0,0,2.32,4.84,7.09,7.09,0,0,0,9.7,0A7.53,7.53,0,0,0,216.55,221.34Z"/><path class="cls-10" d="M256.06,218.79a6.8,6.8,0,0,1-.36,2.82,7.25,7.25,0,0,1-13.62,0,6.8,6.8,0,0,1-.36-2.82,7.53,7.53,0,0,0,2.32,4.85,7.11,7.11,0,0,0,9.7,0A7.53,7.53,0,0,0,256.06,218.79Z"/><path class="cls-10" d="M161.76,216a5.11,5.11,0,0,1-.26,2.05,5.28,5.28,0,0,1-8.81,1.8,5.35,5.35,0,0,1-1.1-1.79,5,5,0,0,1-.26-2.06,5.47,5.47,0,0,0,1.69,3.53,5.16,5.16,0,0,0,7,0A5.47,5.47,0,0,0,161.76,216Z"/><path id="_Path_" data-name="&lt;Path&gt;" class="cls-11" d="M160.33,519.62c11.46,5.9,25.14,6.8,37.48,3.34a38,38,0,0,0,18.88-12.39c2.09-2.56,5.63-2.62,8.39-4.62a16.42,16.42,0,0,0,6-8.21c.61-1.93.77-4.26-.59-5.76s-4.09-1.53-6.09-.65-3.65,2.39-5.6,3.38a13.29,13.29,0,0,0,5.51-11.62,7.27,7.27,0,0,0-1.22-3.77,3.85,3.85,0,0,0-3.45-1.65c-1.74.23-2.94,1.88-3.52,3.54s-.77,3.44-1.58,5a9,9,0,0,0-17.67-.25c-.19-2.51.43-5,.77-7.5s.34-5.19-.94-7.36-4.2-3.53-6.42-2.34a5.72,5.72,0,0,0-2.48,3.3c-1.2,3.52-.46,7.37.28,11a5.26,5.26,0,1,0-8.85,2.85A12.66,12.66,0,0,0,171,473.76c-2.08-.72-4.8-.65-6,1.2-.92,1.43-.52,3.32.09,4.91a22.6,22.6,0,0,0,5.41,8.15c-9.13-8.78-19.82,10.08-8.86,15.42-1.58-3.2-6.7-3.32-9.07-.64s-2.17,6.95-.34,10S157.15,518,160.33,519.62Z"/><path id="_Path_2" data-name="&lt;Path&gt;" class="cls-12" d="M182.37,490.46c2.19-1.34,4.73-.22,6.33,1.53.23-3.46,2.46-6.71,6.23-7a5.35,5.35,0,0,1,5.65,6.5c-.11.47-.83.27-.72-.2a4.65,4.65,0,0,0-5.86-5.4c-3.2.83-4.69,3.92-4.56,7l.16.26a.45.45,0,0,1-.89.12.66.66,0,0,0,0-.14c-1.19-1.74-3.39-3.17-5.52-2.29A3.37,3.37,0,0,0,181.3,495c.11-.41.77-.22.7.24l-.15.89a.37.37,0,0,1-.62.17A4,4,0,0,1,182.37,490.46Z"/><path id="_Path_3" data-name="&lt;Path&gt;" class="cls-11" d="M220.92,533.11c-2.83.53-6,.51-8.25,1.76-6.22,3.49-10.79,8.2-18.29,9-7.78.86-19.59-1.77-25.21-7.57-1.31-1.35-7.59-13.45-7.33-13.49a6.94,6.94,0,0,1,6.74,2.84,15.54,15.54,0,0,1-2.32-7c0-2.54,1.8-6.86,5-6.47,2.39.29,5.41,5,6.4,6.95l-1.83-6.63a6.68,6.68,0,0,1-.24-4,4.09,4.09,0,0,1,5-2.11,6.68,6.68,0,0,1,4,4.22,20,20,0,0,1,.87,5.92,4.43,4.43,0,1,1,8.29-2.87c-.57-2.88-4-9.53-.84-11.85a3.24,3.24,0,0,1,3.88.3,5.32,5.32,0,0,1,1.71,3.7,15.76,15.76,0,0,1-.41,4.16,5.66,5.66,0,1,1,11.31-.23c0-3.18-.53-6.46,2.86-8a5.64,5.64,0,0,1,7,2.18,6,6,0,0,1-2.54,8c5.77-2.88,16.11-.94,12.12,7.77a16.08,16.08,0,0,1-4.91,5.57c2.13-.49,3.59,2.64,2.52,4.55C225.23,531.9,223.18,532.68,220.92,533.11Z"/><path id="_Path_4" data-name="&lt;Path&gt;" class="cls-13" d="M103,558.57c1.37.69,2.92,1.09,4.31,1.74h95.21a8.06,8.06,0,0,0-.24-7.33c-2.41-4-8.58-4.84-12.12-1.93a11.8,11.8,0,0,0,3.31-7.34,9.74,9.74,0,0,0-8,2,13,13,0,0,0,4.43-10.24,9.73,9.73,0,0,0-6.56-8.63c-3.7-1.08-8.17,1-9.38,4.61a9.66,9.66,0,0,0-18.72-3.92c-.59-5.22-1.85-11.39-6.71-13.41-4.22-1.75-9.24.88-11.72,4.72-2.19,3.4-2.88,7.5-3.35,11.54-.38-2.5-3.66-4.58-6.07-3.27s-2.79,5.3-.93,7.45a9.59,9.59,0,0,0-15.39,9.12,3.67,3.67,0,0,0-5.13-1.37c-2,1.34-2.39,4.2-1.61,6.45s2.48,4,4.14,5.75a11,11,0,0,0-3.91-2.87,3.72,3.72,0,0,0-4.36,1.21C99,554.92,100.88,557.51,103,558.57Z"/><path id="_Path_5" data-name="&lt;Path&gt;" class="cls-13" d="M176.76,557.09c2.34,1.17,5.08,1.67,7.14,3.22h115a10.11,10.11,0,0,0,.25-10.1c-3-4.91-10.57-6-14.94-2.38a14.59,14.59,0,0,0,4.09-9.05,12,12,0,0,0-9.82,2.53,16.09,16.09,0,0,0,5.47-12.63c-.33-4.73-3.55-9.31-8.1-10.64s-10.07,1.17-11.55,5.68a11.92,11.92,0,0,0-23.08-4.82c-.72-6.44-2.28-14-8.27-16.53-5.21-2.16-11.4,1.08-14.45,5.82-2.7,4.19-3.55,9.24-4.13,14.22-.46-3.08-4.52-5.65-7.49-4-3.14,1.7-3.43,6.53-1.14,9.18a11.82,11.82,0,0,0-19,11.24c-.91-2.14-4.25-3.09-6.32-1.68-2.43,1.65-2.95,5.17-2,8s3.06,5,5.1,7.09a13.31,13.31,0,0,0-4.81-3.54c-1.9-.65-4.34-.23-5.38,1.49C171.86,552.6,174.15,555.79,176.76,557.09Z"/><path id="_Path_6" data-name="&lt;Path&gt;" class="cls-14" d="M225.46,527.82a2.75,2.75,0,0,0-2.39-2,4.73,4.73,0,0,0-4.76,3.85,7.22,7.22,0,0,0-2.78-2.2c-1.3-.47-2.44.19-3.47,1a4.61,4.61,0,0,0-.6,6.39c.37.43,1-.2.62-.63a4.91,4.91,0,0,1-.71-2.77,3.11,3.11,0,0,1,1.84-2.72c2.16-1.29,4,.93,5.24,2.52.33.41.89-.1.68-.53a3.83,3.83,0,0,1,2.77-3.86,2.13,2.13,0,0,1,2.78,1.43c.28.74,1.08,2.38.59,3.13-.31.48.45.92.76.44C226.8,530.62,225.92,529,225.46,527.82Z"/><path id="_Path_7" data-name="&lt;Path&gt;" class="cls-14" d="M247.12,525.39a4.21,4.21,0,0,0-3.24.79c-.18-2.57-.94-5.94-3.53-5.74-2.22.17-5.36,3.42-3.75,5.62.33.45,1.09,0,.76-.44-1.43-2,2.93-5.82,4.52-3.47a9.6,9.6,0,0,1,1.17,5.07,3,3,0,0,0-.28,1.1c0,.47.57.54.79.23a.41.41,0,0,0,.36-.41c0-.22,0-.46,0-.73a2.8,2.8,0,0,1,2.32-1.18c.9-.05,3.11.75,1.86,1.92-.41.4.22,1,.63.63C250.18,527.41,248.67,525.62,247.12,525.39Z"/><path id="_Path_8" data-name="&lt;Path&gt;" class="cls-14" d="M262.68,525.07a4.73,4.73,0,0,0-4.38,4c-.11.55.74.79.85.23a3.91,3.91,0,0,1,3-3.28,3.15,3.15,0,0,1,3.66,2.88c0,.56.92.57.88,0A4.06,4.06,0,0,0,262.68,525.07Z"/><path id="_Path_9" data-name="&lt;Path&gt;" class="cls-14" d="M174,560.31h50.17l.16-.1a11.43,11.43,0,0,0,5.15-6.93,7.47,7.47,0,0,0-2.94-7.79,5.87,5.87,0,0,0-5.95,0c1.68-2.75,1.21-6.9-1.5-8.8-3-2.1-7.67-.67-9.36,2.48a19.1,19.1,0,0,0,1.33-5.69,7.72,7.72,0,0,0-2.66-6.52c-3.07-2.32-7.77-.88-10.25,2.06s-3.32,6.89-4.06,10.67c.47-2.72.93-5.54.24-8.2s-2.88-5.16-5.64-5.28c-3.07-.12-5.51,2.6-6.83,5.37a21.41,21.41,0,0,0-1.33,14.75c-1.14-1.9-2.36-3.87-4.26-5s-4.69-1.13-6,.63c-1.07,1.41-.89,3.4-.36,5.09a15,15,0,0,0,4.2,6.57,12.59,12.59,0,0,0-6.75-1.18c-.36,0,3.2,5.55,3.67,6A10.24,10.24,0,0,0,174,560.31Z"/><path id="_Path_10" data-name="&lt;Path&gt;" class="cls-13" d="M204.63,540.57a2.14,2.14,0,0,0-3.15-.22,4.73,4.73,0,0,0-3.53-3.57c-1.6-.24-3,1.21-3.54,2.77a2.53,2.53,0,0,0-2.63-.31c-1.71.8-2.64,3.36-1.22,4.83.4.4,1-.22.63-.63-.9-.91-.32-2.47.58-3.16a1.83,1.83,0,0,1,2.41.21,3.84,3.84,0,0,0,0,.83.36.36,0,0,0,.25.3.09.09,0,0,1,0,0c-.13.56.72.79.85.24a2.24,2.24,0,0,0-.2-1.59c.29-1.55,2-3.17,3.45-2.41,1.14.59,2.37,2,2.15,3.35-.1.56.75.8.85.24a.37.37,0,0,1,0-.11.35.35,0,0,0,.47-.2,1.13,1.13,0,0,1,1.82-.21,2.22,2.22,0,0,1,.58,1.15c0,.07.19,1.37,0,1.36-.57,0-.57.84,0,.88C206.14,544.5,205.18,541.24,204.63,540.57Z"/><path id="_Path_11" data-name="&lt;Path&gt;" class="cls-13" d="M190.16,549.93a2.75,2.75,0,0,0-5.14-.62,2.08,2.08,0,0,0-3.19,2.62.44.44,0,0,0,.76-.44c-1.06-1.88,1.9-2.46,2.17-.66.07.49.87.37.86-.12a1.87,1.87,0,0,1,3.69-.54A.44.44,0,0,0,190.16,549.93Z"/><path id="_Path_12" data-name="&lt;Path&gt;" class="cls-14" d="M161.59,536.49a3.32,3.32,0,0,0-2.13-1.52,3.86,3.86,0,0,0-3.72.75c-.07-2-3.42-3.9-5.09-3.93-2.93,0-4.72,2.41-5.28,5a3,3,0,0,0-4.43.34,5.14,5.14,0,0,0,.29,6.59c.37.42,1-.2.62-.63a4.29,4.29,0,0,1-.88-4.21,2.79,2.79,0,0,1,2.26-2.09,2,2,0,0,1,2,1.28c0,.06,0,.12,0,.18a.37.37,0,0,0,.2.35s0,0,0,.07c.11.55,1,.32.85-.24a3.06,3.06,0,0,0-.15-.54c.16-2,1-4.14,3-4.93a4,4,0,0,1,3.53.23c.75.42,2.84,2.16,2.05,3.18a.48.48,0,0,0,.11.69.44.44,0,0,0,.81.17,3,3,0,0,1,3.13-1.56,2.48,2.48,0,0,1,1.88,1.14,3,3,0,0,1-.18,2.51c-.2.53.65.76.85.24A4.57,4.57,0,0,0,161.59,536.49Z"/><path id="_Path_13" data-name="&lt;Path&gt;" class="cls-14" d="M162.89,547.5a2.33,2.33,0,0,0-4,.83c-1-1-2.33-1.9-3.73-1-1.72,1.07-1.49,3.25-.79,4.86.22.52,1,.07.76-.45-.53-1.2-.81-3.35.86-3.83,1.2-.34,2.2.91,2.85,1.72.14.51.94.27.83-.27a1.46,1.46,0,0,1,2.56-1.21C162.64,548.55,163.27,547.92,162.89,547.5Z"/><path id="_Path_14" data-name="&lt;Path&gt;" class="cls-12" d="M200.34,513.58a2.31,2.31,0,0,0-3.92.24c-.65-1.09-1.89-2.16-3.17-1.79a3.25,3.25,0,0,0-1.54,1.48,2,2,0,0,0-.22,2.06c.17.34.68,0,.51-.31a1.6,1.6,0,0,1,.4-1.7c.45-.62.88-1.12,1.74-.91a3.09,3.09,0,0,1,2,1.9l0,.06a2.13,2.13,0,0,0,0,.25c0,.39.58.39.59,0a1.72,1.72,0,0,1,3.1-1C200.06,514.18,200.57,513.88,200.34,513.58Z"/><path id="_Path_15" data-name="&lt;Path&gt;" class="cls-12" d="M213.28,511.81a1,1,0,0,0-1.37-.06c-.19-1.5-.75-3.46-2.35-3.53a3.07,3.07,0,0,0-3.06,2.88c0,.38.56.37.6,0,.1-1.21,1.32-2.62,2.65-2.23s1.53,2.27,1.63,3.47a.22.22,0,0,1,0,.08.3.3,0,0,0,.28.44.28.28,0,0,0,.39-.27s0-.06,0-.09c.22-.31.53-.61.87-.27.13.13.66,1,.4,1.14s0,.71.3.51C214.28,513.44,213.73,512.26,213.28,511.81Z"/><path id="_Path_16" data-name="&lt;Path&gt;" class="cls-12" d="M182.24,519.18a1.06,1.06,0,0,0-.7.44,6.51,6.51,0,0,0-1-1.5,2,2,0,0,0-2.46-.4c-1.44.64-2.22,2.83-.38,3.53.36.13.51-.44.16-.58a1.12,1.12,0,0,1-.4-1.73,2.17,2.17,0,0,1,1.25-.81,1.51,1.51,0,0,1,1.67.78c.3.42,1,1.3.82,1.84-.11.36.46.52.57.16,0,0,0,0,0,0a.27.27,0,0,0,.17-.34.61.61,0,0,1,.42-.76.62.62,0,0,1,.68.55c0,.38.61.39.59,0A1.2,1.2,0,0,0,182.24,519.18Z"/><path id="_Path_17" data-name="&lt;Path&gt;" class="cls-11" d="M540.73,550.38c-11,5.64-24,6.5-35.84,3.2a36.47,36.47,0,0,1-18.06-11.85c-2-2.45-5.38-2.51-8-4.42a15.65,15.65,0,0,1-5.77-7.86c-.59-1.84-.74-4.07.56-5.5s3.91-1.47,5.82-.62,3.5,2.28,5.36,3.22a12.7,12.7,0,0,1-5.27-11.1,6.94,6.94,0,0,1,1.17-3.61,3.69,3.69,0,0,1,3.3-1.58c1.66.22,2.81,1.8,3.36,3.38s.74,3.3,1.51,4.78a8.63,8.63,0,0,1,16.91-.24A35.65,35.65,0,0,0,505,511c-.32-2.39-.33-5,.89-7s4-3.38,6.15-2.24a5.45,5.45,0,0,1,2.36,3.16c1.15,3.36.45,7-.26,10.53a5,5,0,1,1,8.46,2.72,12.12,12.12,0,0,1,7.93-11.62c2-.68,4.59-.62,5.73,1.15.88,1.37.5,3.18-.09,4.7a21.74,21.74,0,0,1-5.17,7.79c8.74-8.4,19,9.64,8.47,14.75,1.51-3.07,6.41-3.18,8.67-.62s2.08,6.65.34,9.59S543.77,548.81,540.73,550.38Z"/><path id="_Path_18" data-name="&lt;Path&gt;" class="cls-13" d="M503.54,566.13c.94.47,2,.8,3,1.18h90.34a7.43,7.43,0,0,0-.41-6.41c-2.25-3.73-8-4.53-11.34-1.8a11.08,11.08,0,0,0,3.11-6.87,9.06,9.06,0,0,0-7.45,1.91,12.17,12.17,0,0,0,4.14-9.58,9.1,9.1,0,0,0-6.14-8.08c-3.46-1-7.65.89-8.78,4.31a9,9,0,0,0-17.51-3.66c-.55-4.89-1.73-10.66-6.28-12.55-4-1.64-8.65.82-11,4.42-2.05,3.18-2.7,7-3.14,10.8-.35-2.34-3.43-4.29-5.68-3.07s-2.6,5-.87,7a9,9,0,0,0-14.4,8.53,3.44,3.44,0,0,0-4.8-1.28c-1.84,1.26-2.24,3.93-1.51,6a15.49,15.49,0,0,0,3.88,5.38,10.23,10.23,0,0,0-3.66-2.69,3.5,3.5,0,0,0-4.08,1.13C499.82,562.72,501.56,565.14,503.54,566.13Z"/><path id="_Path_19" data-name="&lt;Path&gt;" class="cls-13" d="M529.47,564c2.42,1.2,5.25,1.72,7.38,3.32H655.64a10.43,10.43,0,0,0,.25-10.43c-3.06-5.08-10.92-6.17-15.43-2.47a15,15,0,0,0,4.22-9.34,12.35,12.35,0,0,0-10.13,2.61,16.58,16.58,0,0,0,5.64-13c-.34-4.89-3.66-9.61-8.37-11s-10.4,1.22-11.93,5.87a12.31,12.31,0,0,0-23.84-5c-.75-6.65-2.36-14.51-8.54-17.08-5.39-2.23-11.78,1.12-14.93,6-2.79,4.33-3.67,9.55-4.27,14.7-.48-3.19-4.67-5.84-7.73-4.17-3.25,1.76-3.55,6.75-1.18,9.49a12.21,12.21,0,0,0-19.6,11.61c-.94-2.21-4.39-3.2-6.53-1.74-2.51,1.71-3,5.34-2.06,8.21s3.17,5.15,5.28,7.33a13.91,13.91,0,0,0-5-3.66c-2-.67-4.48-.24-5.55,1.54C524.4,559.35,526.77,562.64,529.47,564Z"/><path id="_Path_20" data-name="&lt;Path&gt;" class="cls-14" d="M579.78,533.74a2.85,2.85,0,0,0-2.47-2.1,4.87,4.87,0,0,0-4.91,4,7.44,7.44,0,0,0-2.88-2.27c-1.35-.48-2.52.2-3.59,1a4.74,4.74,0,0,0-.61,6.59c.38.45,1-.2.64-.64a5.1,5.1,0,0,1-.74-2.87,3.19,3.19,0,0,1,1.91-2.8c2.22-1.34,4.11,1,5.41,2.59.34.43.91-.1.7-.54a4,4,0,0,1,2.86-4,2.19,2.19,0,0,1,2.87,1.48c.3.77,1.12,2.45.61,3.23-.32.49.47,1,.79.46C581.16,536.64,580.25,534.94,579.78,533.74Z"/><path id="_Path_21" data-name="&lt;Path&gt;" class="cls-14" d="M602.15,531.23a4.37,4.37,0,0,0-3.34.82c-.19-2.65-1-6.13-3.65-5.93-2.29.18-5.54,3.53-3.88,5.81.35.47,1.14,0,.79-.46-1.47-2,3-6,4.67-3.58a9.93,9.93,0,0,1,1.21,5.24,3.08,3.08,0,0,0-.29,1.13c0,.49.59.56.82.23a.42.42,0,0,0,.37-.42c0-.22,0-.47,0-.75a2.93,2.93,0,0,1,2.4-1.22c.92-.05,3.2.77,1.92,2-.42.4.22,1,.65.64C605.31,533.32,603.76,531.48,602.15,531.23Z"/><path id="_Path_22" data-name="&lt;Path&gt;" class="cls-14" d="M618.23,530.91A4.87,4.87,0,0,0,613.7,535c-.11.57.77.81.88.24a4.07,4.07,0,0,1,3.09-3.4,3.25,3.25,0,0,1,3.78,3c0,.58.95.59.91,0A4.19,4.19,0,0,0,618.23,530.91Z"/><path id="_Path_23" data-name="&lt;Path&gt;" class="cls-14" d="M454.58,565.53a17.63,17.63,0,0,0,1,1.78h71.22a9,9,0,0,0,1.49-1.1c1.76-1.62,2.69-4.39,1.51-6.47a5.33,5.33,0,0,0-4.7-2.41,12.07,12.07,0,0,0-5.27,1.54,12.44,12.44,0,0,0,5.29-8c.46-3.26-1.07-6.88-4-8.3s-7.14.05-8.08,3.2A28,28,0,0,0,514.1,538a9.38,9.38,0,0,0-3.16-6.93c-3-2.42-7.59-1.85-11,0a17.64,17.64,0,0,0-8.81,13c-.9-2.64.11-5.51.21-8.29s-1.52-6.2-4.3-6c-1.8.12-3.11,1.71-4.08,3.23a41.12,41.12,0,0,0-6.2,17.48c-4-3.79-4.07-11.47-9.33-13-3.68-1.11-7.54,2-8.64,5.74s-.19,7.64.71,11.38c-.82-2.09-1.69-4.25-3.34-5.76s-4.36-2.1-6.14-.75c-2.16,1.65-1.82,5-.8,7.51C450.64,559.06,453,562.16,454.58,565.53Z"/><path id="_Path_24" data-name="&lt;Path&gt;" class="cls-13" d="M503.58,547.88a2.62,2.62,0,0,0-2.23-.42c.53-2.75.15-6.19-3.39-6a6,6,0,0,0-5.11,3.9,3.29,3.29,0,0,0-3.49-1.87c-2.35.31-3.27,2.54-3.13,4.67,0,.58.95.58.91,0-.07-1.13,0-2.85,1.29-3.41a2.67,2.67,0,0,1,3.95,2.53.46.46,0,0,0,.91,0,5.32,5.32,0,0,1,3.41-4.6c3.95-1.48,4.23,2.73,3.59,5.29a2.27,2.27,0,0,0-.31.31c-.36.46.28,1.11.64.65l.12-.13a.41.41,0,0,0,.33-.27,1.71,1.71,0,0,1,1.9,0,2,2,0,0,1,.44,2.6.45.45,0,0,0,.78.46A2.92,2.92,0,0,0,503.58,547.88Z"/><path id="_Path_25" data-name="&lt;Path&gt;" class="cls-13" d="M474.72,548.77c-2-.46-2.84,1.35-3.12,3.05-.88-1.5-2.21-3.17-3.88-2.1-2,1.28-1.27,4.22.13,5.59a.45.45,0,0,0,.64-.64,3.06,3.06,0,0,1-1-1.93c-.1-1,.27-3.23,2.28-1.94.82.54,1.35,2,1.78,2.82a.46.46,0,0,0,.85-.23c0-1.16-.1-3,1.21-3.56,2-.83,2.59,2.5,2,3.42a.45.45,0,0,0,.78.45C477.29,552.25,476.56,549.2,474.72,548.77Z"/><path id="_Path_26" data-name="&lt;Path&gt;" class="cls-13" d="M500.85,557.74c-1.61.5-3.56,2.45-3,4.25.18.55,1.06.31.88-.25-.42-1.23,1.14-2.68,2.22-3.07a2.08,2.08,0,0,1,2.73,1.77c.08.58,1,.33.87-.24A3,3,0,0,0,500.85,557.74Z"/><path id="_Path_27" data-name="&lt;Path&gt;" class="cls-14" d="M593.11,565.53a17.6,17.6,0,0,0,1,1.78h71.22a9.47,9.47,0,0,0,1.5-1.1c1.76-1.62,2.68-4.39,1.5-6.47a5.32,5.32,0,0,0-4.7-2.41,12.07,12.07,0,0,0-5.27,1.54,12.4,12.4,0,0,0,5.29-8c.46-3.26-1.06-6.88-4-8.3s-7.13.05-8.08,3.2a28,28,0,0,0,1.08-7.75,9.35,9.35,0,0,0-3.16-6.93c-3-2.42-7.59-1.85-11,0a17.64,17.64,0,0,0-8.81,13c-.89-2.64.11-5.51.21-8.29s-1.52-6.2-4.3-6c-1.8.12-3.11,1.71-4.08,3.23a41.12,41.12,0,0,0-6.2,17.48c-4-3.79-4.06-11.47-9.33-13-3.68-1.11-7.54,2-8.64,5.74s-.19,7.64.71,11.38c-.82-2.09-1.68-4.25-3.34-5.76s-4.36-2.1-6.14-.75c-2.15,1.65-1.81,5-.79,7.51C589.16,559.06,591.48,562.16,593.11,565.53Z"/><path id="_Path_28" data-name="&lt;Path&gt;" class="cls-13" d="M642.1,547.88a2.62,2.62,0,0,0-2.23-.42c.53-2.75.15-6.19-3.39-6a6,6,0,0,0-5.1,3.9,3.3,3.3,0,0,0-3.5-1.87c-2.35.31-3.27,2.54-3.13,4.67,0,.58,1,.58.91,0-.07-1.13,0-2.85,1.29-3.41a2.67,2.67,0,0,1,3.95,2.53.46.46,0,0,0,.91,0,5.34,5.34,0,0,1,3.41-4.6c4-1.48,4.24,2.73,3.59,5.29a2.27,2.27,0,0,0-.31.31c-.36.46.28,1.11.64.65l.12-.13a.41.41,0,0,0,.33-.27,1.71,1.71,0,0,1,1.9,0,2,2,0,0,1,.44,2.6.45.45,0,0,0,.78.46A2.92,2.92,0,0,0,642.1,547.88Z"/><path id="_Path_29" data-name="&lt;Path&gt;" class="cls-13" d="M613.24,548.77c-2-.46-2.84,1.35-3.12,3.05-.88-1.5-2.21-3.17-3.88-2.1-2,1.28-1.27,4.22.13,5.59a.45.45,0,0,0,.64-.64,3.06,3.06,0,0,1-1-1.93c-.1-1,.27-3.23,2.28-1.94.82.54,1.35,2,1.78,2.82a.46.46,0,0,0,.85-.23c0-1.16-.1-3,1.21-3.56,2-.83,2.59,2.5,2,3.42a.45.45,0,0,0,.78.45C615.81,552.25,615.08,549.2,613.24,548.77Z"/><path id="_Path_30" data-name="&lt;Path&gt;" class="cls-13" d="M639.37,557.74c-1.6.5-3.56,2.45-3,4.25.19.55,1.06.31.88-.25-.42-1.23,1.15-2.68,2.22-3.07a2.08,2.08,0,0,1,2.73,1.77c.08.58,1,.33.88-.24A3,3,0,0,0,639.37,557.74Z"/><path id="_Path_31" data-name="&lt;Path&gt;" class="cls-14" d="M545.83,540.25a3.28,3.28,0,0,0-3,.17,3.78,3.78,0,0,0-4.46-2.82,6.18,6.18,0,0,0-4.46,5.22,2.42,2.42,0,0,0-3.75-.29,3.82,3.82,0,0,0-.11,5.52c.4.42,1-.22.64-.65a2.9,2.9,0,0,1-.11-4,1.73,1.73,0,0,1,2-.62,3.62,3.62,0,0,1,1.22,1.41v.07a.46.46,0,0,0,.91,0,5.9,5.9,0,0,1,2.64-5.26c2-1.17,4.41-.18,4.67,2a.86.86,0,0,0,.24,1.42.49.49,0,0,0,.67-.58s0,0,0-.05,0-.22,0-.32c.37-.21,1-.54,1.08-.55a2.15,2.15,0,0,1,2.1.7c.85.84,1.94,2.71.5,3.54a.45.45,0,0,0,.46.78C549.51,544.59,547.7,541.21,545.83,540.25Z"/><path id="_Path_32" data-name="&lt;Path&gt;" class="cls-14" d="M466.87,556c-.37-.79-.37-1.53-1.16-2.12a5.6,5.6,0,0,0-3.37-.8c-2.38,0-3,2-3.75,4-.19.55.69.79.88.24.61-1.71,1.16-3.39,3.37-3.26,1.16.06,2.38.17,2.94,1.42.16.37.19.73.35,1.09a2,2,0,0,0-.29.42c-.26.53.52,1,.78.46.6-1.2,3.84-.79,3.14.73-.24.53.54,1,.79.46C471.54,556.37,468.64,555.18,466.87,556Z"/><path id="_Path_33" data-name="&lt;Path&gt;" class="cls-12" d="M519.66,522.49c-2.1-1.28-4.53-.21-6.06,1.47-.22-3.32-2.35-6.42-6-6.66a5.11,5.11,0,0,0-5.4,6.22c.11.44.79.25.69-.19a4.45,4.45,0,0,1,5.61-5.17c3.06.8,4.47,3.75,4.36,6.7l-.16.25a.36.36,0,0,0,.55.45.35.35,0,0,0,.3-.33c0-.05,0-.09,0-.14,1.14-1.66,3.25-3,5.28-2.18a3.21,3.21,0,0,1,1.8,3.94c-.11-.39-.74-.2-.67.23s.1.57.14.86a.36.36,0,0,0,.6.15A3.8,3.8,0,0,0,519.66,522.49Z"/><path class="cls-15" d="M188.12,471v39.53a6.88,6.88,0,0,0,6.87,6.87H558.13a6.88,6.88,0,0,0,6.87-6.87V471Z"/><path class="cls-16" d="M565,252.7a6.89,6.89,0,0,0-6.87-6.87H195a6.9,6.9,0,0,0-6.88,6.87V471H565Z"/><rect class="cls-17" x="312.54" y="517.43" width="129.63" height="39.8"/><rect class="cls-15" x="281.39" y="557.23" width="190.16" height="18.63"/><rect class="cls-18" x="312.54" y="517.43" width="129.63" height="14.38"/><rect class="cls-4" x="207.6" y="265.44" width="337.99" height="185.46"/><polygon class="cls-16" points="340.73 301.81 317.21 325.33 293.69 301.81 284.29 311.22 307.81 334.74 284.29 358.26 293.69 367.67 317.21 344.15 340.73 367.67 350.14 358.26 326.62 334.74 350.14 311.22 340.73 301.81"/><polygon class="cls-16" points="468.83 311.22 459.42 301.81 435.9 325.33 412.38 301.81 402.97 311.22 426.49 334.74 402.97 358.26 412.38 367.67 435.9 344.15 459.42 367.67 468.83 358.26 445.31 334.74 468.83 311.22"/><path class="cls-16" d="M426.94,425.13c-49.77-34.37-100.19-.35-100.69,0l-6.53-9.46c.57-.39,57.53-38.82,113.75,0Z"/><path class="cls-7" d="M520.05,204.7a8.33,8.33,0,0,0-8.33-8.33,8.24,8.24,0,0,0-2.35.34,13.68,13.68,0,0,0,.14-1.82,13.08,13.08,0,0,0-25.28-4.7,20,20,0,0,0-4.73-.57,20.21,20.21,0,0,0-18.21,11.47,13,13,0,0,0-8.69,5.53,8.33,8.33,0,1,0-3.9,15.7,8.4,8.4,0,0,0,3.9-1,13,13,0,0,0,15.25,4.93,20.15,20.15,0,0,0,24.69-1.08,13.06,13.06,0,0,0,22.14-9.41,12.67,12.67,0,0,0-.4-3.16A8.34,8.34,0,0,0,520.05,204.7Z"/><path class="cls-8" d="M516.78,211.31a8.33,8.33,0,0,0-7.41-14.6,13.68,13.68,0,0,0,.14-1.82,13.08,13.08,0,0,0-25.28-4.7,20,20,0,0,0-4.73-.57,20.21,20.21,0,0,0-18.21,11.47,13,13,0,0,0-8.69,5.53,8.33,8.33,0,0,0-11.79,4.69Z"/><path class="cls-9" d="M517.2,203.56h0a4.75,4.75,0,0,0,0-.54A9,9,0,0,0,500,199.46a5.76,5.76,0,0,0-6-1.25,8.07,8.07,0,0,0-14.7-.23,12,12,0,0,0-21.45,6,8.06,8.06,0,0,0-10.68,3.35,5.84,5.84,0,1,0,0,7.78,8.08,8.08,0,0,0,13.3,1.29,8.09,8.09,0,0,0,15.11,3A12,12,0,0,0,493.78,221a12,12,0,0,0,22-6,6.17,6.17,0,0,0,1.44.18,5.84,5.84,0,0,0,0-11.68Z"/><path class="cls-10" d="M482.8,203.8a3.8,3.8,0,0,1-.2,1.56,4.06,4.06,0,0,1-.84,1.37,4,4,0,0,1-5.87,0,4.25,4.25,0,0,1-.85-1.37,3.8,3.8,0,0,1-.2-1.56,4.23,4.23,0,0,0,1.29,2.69,3.94,3.94,0,0,0,5.38,0A4.14,4.14,0,0,0,482.8,203.8Z"/><path class="cls-10" d="M505.53,208a6.26,6.26,0,0,1-.32,2.53,6.68,6.68,0,0,1-1.36,2.21,6.49,6.49,0,0,1-9.47,0,6.68,6.68,0,0,1-1.36-2.21,6.26,6.26,0,0,1-.32-2.53,6.74,6.74,0,0,0,2.08,4.34,6.35,6.35,0,0,0,8.67,0A6.7,6.7,0,0,0,505.53,208Z"/><path class="cls-10" d="M464.62,207.42a4.89,4.89,0,0,1-.25,2,5.16,5.16,0,0,1-1.06,1.71,5,5,0,0,1-8.41-1.71,4.89,4.89,0,0,1-.25-2,5.23,5.23,0,0,0,1.62,3.36,4.92,4.92,0,0,0,6.73,0A5.23,5.23,0,0,0,464.62,207.42Z"/><path class="cls-7" d="M670.75,242.6c-.14,0-.27,0-.41,0A12.37,12.37,0,0,0,652.22,235a22,22,0,0,0-4.44-5.48,12.39,12.39,0,0,0-17.33-16.26,21.78,21.78,0,0,0-36.17-2.69,21.8,21.8,0,0,0-29,14A21.78,21.78,0,0,0,551.51,235a12.38,12.38,0,0,0-16.92,4.66,6.93,6.93,0,1,0,0,12.23,12.38,12.38,0,0,0,16.92,4.66,21.75,21.75,0,0,0,35,4,21.75,21.75,0,0,0,31.41.68,21.78,21.78,0,0,0,34.34-4.67,12.35,12.35,0,0,0,15.31-2.46,6.12,6.12,0,0,0,3.22.93,6.21,6.21,0,0,0,0-12.41Z"/><path class="cls-8" d="M670.33,242.62A12.37,12.37,0,0,0,652.22,235a22,22,0,0,0-4.44-5.48,12.39,12.39,0,0,0-17.33-16.26,21.78,21.78,0,0,0-36.17-2.69,21.8,21.8,0,0,0-29,14A21.78,21.78,0,0,0,551.51,235a12.38,12.38,0,0,0-16.92,4.66,6.91,6.91,0,0,0-3.24-.8"/><path class="cls-9" d="M672,246.32l-.26,0a7.9,7.9,0,0,0-7.63-5.91,7.81,7.81,0,0,0-3.9,1,14,14,0,0,0-2.82-3.48,7.89,7.89,0,0,0-7.05-11.43,7.78,7.78,0,0,0-4,1.08,13.85,13.85,0,0,0-23-1.71,13.72,13.72,0,0,0-5.14-1,13.9,13.9,0,0,0-13.31,9.93,14.78,14.78,0,0,0-1.67.53,10.29,10.29,0,0,0-18.34.43l-.06,0a5.92,5.92,0,0,0-8.28-7.78,10.42,10.42,0,0,0-17.3-1.29,10.57,10.57,0,0,0-3.87-.74,10.44,10.44,0,0,0-10,7.46,10.44,10.44,0,0,0-6.59,5,5.8,5.8,0,0,0-2.93-.78,5.92,5.92,0,0,0-5.16,3,3.24,3.24,0,0,0-1.55-.39,3.31,3.31,0,0,0,0,6.62,3.24,3.24,0,0,0,1.55-.39,5.94,5.94,0,0,0,8.09,2.24,10.41,10.41,0,0,0,16.72,1.9,10.41,10.41,0,0,0,15,.33,10.39,10.39,0,0,0,12.34,1.76c.14,0,.29,0,.44,0a4.33,4.33,0,0,0,2.06-.51,7.89,7.89,0,0,0,10.76,3,13.84,13.84,0,0,0,22.25,2.53,13.84,13.84,0,0,0,20,.44,13.86,13.86,0,0,0,21.85-3,7.89,7.89,0,0,0,9.75-1.57,3.83,3.83,0,0,0,2,.59,3.95,3.95,0,1,0,0-7.89Z"/><path class="cls-10" d="M588.81,238.05a4.56,4.56,0,0,1-.44,2.49,6.48,6.48,0,0,1-1.82,2.17,11,11,0,0,1-12.72,0,6.5,6.5,0,0,1-1.82-2.17,4.56,4.56,0,0,1-.43-2.49,6.15,6.15,0,0,0,2.79,4.27,10.88,10.88,0,0,0,11.65,0A6.18,6.18,0,0,0,588.81,238.05Z"/><path class="cls-10" d="M641.48,233.28a4.51,4.51,0,0,1-.44,2.48,6.42,6.42,0,0,1-1.82,2.18,11.07,11.07,0,0,1-12.72,0,6.53,6.53,0,0,1-1.82-2.18,4.51,4.51,0,0,1-.43-2.48,6.15,6.15,0,0,0,2.79,4.27,10.94,10.94,0,0,0,11.65,0A6.15,6.15,0,0,0,641.48,233.28Z"/><path class="cls-10" d="M619.3,245.68a4.56,4.56,0,0,1-.44,2.49,6.48,6.48,0,0,1-1.82,2.17,11,11,0,0,1-12.72,0,6.6,6.6,0,0,1-1.82-2.17,4.56,4.56,0,0,1-.43-2.49,6.15,6.15,0,0,0,2.79,4.27,10.94,10.94,0,0,0,11.65,0A6.18,6.18,0,0,0,619.3,245.68Z"/></svg>