<?xml version="1.0" encoding="utf-8"?>
<!-- Generator: Adobe Illustrator 22.0.1, SVG Export Plug-In . SVG Version: 6.00 Build 0)  -->
<svg version="1.1" id="Layer_1" xmlns="http://www.w3.org/2000/svg" xmlns:xlink="http://www.w3.org/1999/xlink" x="0px" y="0px"
	 viewBox="0 0 85.8 85.9" style="enable-background:new 0 0 85.8 85.9;" xml:space="preserve">
<style type="text/css">
	.st0{fill:#005A92;}
	.st1{fill:#FFF100;}
</style>
<path class="st0" d="M31.1,45.9c4.4-2.2,6.2-7.4,4.1-11.8c-2.1-4.4-7.4-6.2-11.8-4.1L4.6,39c-0.1,1.3-0.2,2.6-0.2,3.9
	c0,5.1,1,10,2.8,14.5L31.1,45.9L31.1,45.9"/>
<path class="st0" d="M44.3,52.8c-2.1-4.4-7.4-6.2-11.8-4.1h0L8.5,60.3c2.8,5.5,6.9,10.3,11.9,13.9l19.8-9.6
	C44.6,62.5,46.4,57.2,44.3,52.8"/>
<path class="st1" d="M38,32.6c0.2,0.4,0.4,0.8,0.5,1.3c2.5,3.1,6.9,4.1,10.7,2.3v0l26.8-13c-3.3-5.4-7.8-10-13.2-13.3L41.5,20.3
	c-4,1.9-5.8,6.4-4.6,10.5C37.3,31.3,37.7,32,38,32.6"/>
<path class="st1" d="M50.6,39c-3.9,1.9-5.8,6.4-4.6,10.5c0.4,0.6,0.8,1.2,1.2,1.9c0.2,0.4,0.4,0.8,0.5,1.3c2.5,3.1,6.9,4.1,10.7,2.3
	l23.2-11.3c0-0.3,0-0.5,0-0.8c0-6.1-1.4-11.9-4-17L50.6,39C50.6,39,50.6,39,50.6,39"/>
<path class="st0" d="M76.1,23.2L49.2,36.2h0c-3.8,1.8-8.1,0.7-10.7-2.3c0.2,0.6,0.4,1.2,0.5,1.8c0.2,0.9,0.2,1.7,0.2,2.6
	c-0.1,2.3-0.8,4.5-2.1,6.4c2,0.1,4,0.8,5.7,1.9c0.6,0.4,1.2,0.9,1.8,1.4c0.5,0.5,1,1,1.4,1.6c-1.2-4.1,0.7-8.5,4.6-10.5c0,0,0,0,0,0
	l27-13.1C77.1,25,76.6,24.1,76.1,23.2"/>
<path class="st0" d="M61.7,9.3c-0.8-0.4-1.5-0.8-2.3-1.2c-5-2.4-10.6-3.7-16.5-3.7C24.3,4.4,8.7,17.7,5.1,35.3L22,27.1
	c4-1.9,8.5-1.5,11.9,0.8c0.6,0.4,1.1,0.8,1.7,1.3c0.5,0.5,0.9,1,1.3,1.5c-1.2-4.1,0.7-8.5,4.6-10.5L62.8,9.9
	C62.5,9.7,62.1,9.5,61.7,9.3"/>
<path class="st0" d="M81.5,43.7L58.3,55c-3.8,1.8-8.2,0.7-10.7-2.3c0.3,1,0.5,2,0.6,2.9c0,0.2,0,0.5,0,0.7c0,0.1,0,0.2,0,0.4
	c0.1,0.1,0.2,0.2,0.3,0.2l0,0h0c3.2,2.2,7.3,2.7,11,0.9l21.6-10.5c0.1-0.7,0.1-1.3,0.2-2l0-0.2C81.5,44.7,81.5,44.2,81.5,43.7"/>
<path class="st1" d="M46,49.5c0.1,0.5,0.3,0.9,0.5,1.4c0.3,0.7,0.7,1.2,1.2,1.8c-0.1-0.4-0.3-0.8-0.5-1.3
	C46.8,50.7,46.4,50.1,46,49.5"/>
<path class="st1" d="M38.5,33.9c-0.2-0.4-0.3-0.8-0.5-1.3c-0.3-0.7-0.7-1.3-1.2-1.9c0.1,0.5,0.3,0.9,0.5,1.4
	C37.7,32.8,38.1,33.4,38.5,33.9"/>
<path class="st1" d="M48.3,56.7c0-0.1,0-0.2,0-0.4l-0.5-0.8l-1.1-0.3l-0.1,0.2C47.2,55.8,47.8,56.2,48.3,56.7"/>
<path class="st1" d="M59.7,57.8c-3.9,1.9-8.1,1.2-11.4-1.1c-0.6-0.4-1.1-0.9-1.6-1.4l0-0.2l1.1,0.3l0.4,0.1c-0.1-1-0.3-2-0.6-2.9
	c-0.4-0.5-0.8-1.1-1.2-1.8c-0.2-0.4-0.4-0.9-0.5-1.4c-0.4-0.6-0.9-1.1-1.4-1.6c-0.6-0.5-1.2-1-1.8-1.4c-1.7-1.1-3.7-1.7-5.7-1.9
	c1.3-1.9,2-4.1,2.1-6.4c0-0.9,0-1.7-0.2-2.6c-0.1-0.6-0.3-1.2-0.5-1.8c-0.4-0.5-0.8-1.1-1.2-1.8c-0.2-0.5-0.4-0.9-0.5-1.4
	c-0.4-0.5-0.8-1-1.3-1.5c-0.5-0.5-1.1-0.9-1.6-1.3c-3.4-2.3-7.9-2.8-11.9-0.8L5.1,35.3c-0.2,1.2-0.4,2.5-0.6,3.8l18.8-9.1
	c4.4-2.1,9.7-0.3,11.8,4.1c2.1,4.4,0.3,9.7-4.1,11.9h0L7.2,57.5c0.4,1,0.8,1.9,1.3,2.8l23.9-11.6l0,0c4.4-2.1,9.7-0.3,11.8,4.1
	c2.1,4.4,0.3,9.7-4.1,11.8l-19.8,9.6c0.5,0.3,0.9,0.7,1.4,1c0.5,0.4,1.1,0.7,1.7,1c5.7,3.4,12.4,5.3,19.5,5.3
	c19.8,0,36.1-15,38.3-34.2L59.7,57.8z"/>
<path class="st1" d="M48.3,56.3c0-0.2,0-0.5,0-0.7l-0.4-0.1L48.3,56.3z"/>
<path class="st0" d="M42.9,0C19.2,0,0,19.2,0,42.9c0,23.7,19.2,42.9,42.9,42.9c23.7,0,42.9-19.2,42.9-42.9C85.9,19.2,66.7,0,42.9,0
	 M42.9,84c-11.3,0-21.6-4.6-29-12c-7.4-7.4-12-17.7-12-29c0-11.3,4.6-21.6,12-29c7.4-7.4,17.7-12,29-12s21.6,4.6,29,12
	c7.4,7.4,12,17.7,12,29c0,11.3-4.6,21.6-12,29C64.5,79.4,54.3,84,42.9,84"/>
</svg>
