<?xml version="1.0" encoding="utf-8"?>
<!-- Generator: Adobe Illustrator 22.0.1, SVG Export Plug-In . SVG Version: 6.00 Build 0)  -->
<svg version="1.1" id="Layer_1" xmlns="http://www.w3.org/2000/svg" xmlns:xlink="http://www.w3.org/1999/xlink" x="0px" y="0px"
	 viewBox="0 0 259.2 85.9" style="enable-background:new 0 0 259.2 85.9;" xml:space="preserve">
<style type="text/css">
	.st0{fill:#005A92;}
	.st1{fill:#FFF100;}
	.st2{fill:#F26F31;}
</style>
<path class="st0" d="M48.9,8.5c-0.4-0.1-0.8-0.2-1.4-0.3c-0.6-0.1-1.3-0.1-2.2-0.1c-0.9,0-1.6,0-2.2,0.1c-0.6,0.1-1.1,0.2-1.4,0.3
	C41.2,8.7,41,8.8,40.8,9c-0.1,0.2-0.2,0.4-0.2,0.6v43.6c0,0.2,0.1,0.4,0.2,0.6c0.1,0.2,0.4,0.3,0.7,0.4c0.4,0.1,0.8,0.2,1.4,0.3
	c0.6,0.1,1.3,0.1,2.2,0.1c0.9,0,1.6,0,2.2-0.1c0.6-0.1,1.1-0.1,1.4-0.3c0.4-0.1,0.6-0.2,0.8-0.4c0.1-0.2,0.2-0.4,0.2-0.6V9.6
	c0-0.2-0.1-0.4-0.2-0.6C49.5,8.8,49.2,8.7,48.9,8.5 M87.5,22c-0.4-0.1-0.8-0.2-1.4-0.3c-0.6-0.1-1.3-0.1-2.2-0.1
	c-0.9,0-1.6,0-2.2,0.1c-0.6,0.1-1.1,0.2-1.4,0.3c-0.4,0.1-0.6,0.3-0.7,0.4c-0.1,0.2-0.2,0.3-0.2,0.5c-0.2-0.1-0.3-0.1-0.5-0.2
	c-2.1-0.7-4.7-1.1-7.6-1.1c-3,0-5.6,0.4-7.8,1.2c-2.2,0.8-4.1,2-5.6,3.5c-1.5,1.5-2.6,3.3-3.3,5.4c-0.7,2.1-1.1,4.4-1.1,6.9
	c0,2.6,0.3,4.9,1,7c0.7,2,1.7,3.7,3.1,5.1c1.4,1.4,3.2,2.5,5.3,3.2c2.1,0.7,4.7,1.1,7.6,1.1c3,0,5.6-0.4,7.9-1.2
	c0.4-0.1,0.7-0.3,1-0.4c0,0.1,0.1,0.3,0.2,0.4c0.1,0.2,0.4,0.3,0.7,0.4c0.4,0.1,0.8,0.2,1.4,0.3c0.6,0.1,1.3,0.1,2.2,0.1
	c0.9,0,1.6,0,2.2-0.1c0.6-0.1,1.1-0.1,1.4-0.3c0.4-0.1,0.6-0.2,0.7-0.4c0.1-0.2,0.2-0.4,0.2-0.6V23.1c0-0.2-0.1-0.4-0.2-0.6
	C88.1,22.3,87.8,22.2,87.5,22 M78.3,42.6c-0.3,1.2-0.8,2.3-1.5,3.1c-0.7,0.9-1.5,1.5-2.5,2c-1,0.5-2.2,0.7-3.6,0.7
	c-1.5,0-2.8-0.3-3.8-0.7c-1-0.5-1.8-1.2-2.4-2.1c-0.6-0.9-1-2-1.3-3.2c-0.3-1.2-0.4-2.6-0.4-4c0-1.6,0.2-3,0.5-4.2
	c0.3-1.2,0.8-2.3,1.5-3.2c0.7-0.9,1.5-1.5,2.5-2c1-0.5,2.2-0.7,3.6-0.7c1.5,0,2.8,0.3,3.8,0.8c1,0.5,1.8,1.2,2.4,2.1
	c0.6,0.9,1,2,1.3,3.2c0.3,1.2,0.4,2.6,0.4,4C78.8,40,78.6,41.4,78.3,42.6 M121.5,26.6c-1.1-1.5-2.4-2.7-4.1-3.5
	c-1.7-0.9-3.7-1.3-6.1-1.3c-1,0-1.9,0.1-2.8,0.2c-0.9,0.2-1.7,0.4-2.6,0.7c-0.8,0.3-1.7,0.8-2.5,1.3c-0.8,0.5-1.7,1.2-2.5,1.9V9.6
	c0-0.2-0.1-0.4-0.2-0.6c-0.2-0.2-0.4-0.3-0.8-0.5c-0.4-0.1-0.8-0.2-1.4-0.3c-0.6-0.1-1.3-0.1-2.2-0.1c-0.9,0-1.6,0-2.2,0.1
	c-0.6,0.1-1.1,0.2-1.4,0.3C92.4,8.7,92.1,8.8,92,9c-0.1,0.2-0.2,0.4-0.2,0.6v43.6c0,0.2,0.1,0.4,0.2,0.6c0.1,0.2,0.3,0.3,0.6,0.4
	c0.3,0.1,0.7,0.2,1.2,0.2c0.5,0,1.1,0.1,1.9,0.1c0.7,0,1.4,0,1.9-0.1c0.5,0,0.9-0.1,1.2-0.2c0.3-0.1,0.5-0.2,0.7-0.4
	c0.1-0.2,0.2-0.4,0.2-0.6V50c0.9,0.9,1.7,1.7,2.6,2.3c0.8,0.6,1.7,1.2,2.6,1.6c0.9,0.4,1.8,0.7,2.7,0.9c1,0.2,2,0.3,3.1,0.3
	c2.2,0,4.2-0.4,5.9-1.2c1.7-0.8,3.2-1.9,4.4-3.4c1.2-1.5,2.1-3.3,2.7-5.4c0.6-2.1,1-4.5,1-7.1c0-2.2-0.2-4.3-0.7-6.2
	C123.4,29.8,122.6,28,121.5,26.6 M114.7,42c-0.2,1.1-0.6,2.1-1.2,3c-0.5,0.9-1.2,1.6-2.1,2.2c-0.8,0.6-1.8,0.8-3,0.8
	c-1.3,0-2.5-0.4-3.7-1.2c-1.2-0.8-2.4-1.9-3.7-3.4v-9.8c0.7-0.9,1.4-1.6,2.1-2.2c0.7-0.6,1.3-1.1,1.9-1.5c0.6-0.4,1.2-0.6,1.8-0.8
	c0.6-0.2,1.2-0.2,1.8-0.2c1.2,0,2.3,0.3,3.1,0.8c0.8,0.5,1.5,1.3,2,2.2c0.5,0.9,0.9,1.9,1.1,3.1c0.2,1.2,0.3,2.4,0.3,3.6
	C115,39.7,114.9,40.9,114.7,42 M148.8,29.5c0.1-0.3,0.2-0.7,0.2-1.2c0-0.5,0.1-1.2,0.1-2c0-0.8,0-1.4,0-1.9c0-0.5-0.1-0.8-0.1-1
	c0-0.2-0.1-0.4-0.2-0.6c-0.1-0.1-0.2-0.3-0.3-0.4c-0.1-0.1-0.3-0.2-0.6-0.3c-0.3-0.1-0.6-0.2-1-0.3c-0.4-0.1-0.8-0.1-1.1-0.2
	c-0.4,0-0.7,0-1,0c-0.7,0-1.4,0.1-2,0.2c-0.7,0.2-1.4,0.5-2.1,0.9c-0.7,0.4-1.4,1-2.2,1.7c-0.8,0.7-1.6,1.6-2.4,2.7v-3.7
	c0-0.2-0.1-0.4-0.2-0.6c-0.1-0.2-0.3-0.3-0.6-0.4c-0.3-0.1-0.7-0.2-1.2-0.3c-0.5-0.1-1.2-0.1-1.9-0.1c-0.8,0-1.4,0-1.9,0.1
	c-0.5,0.1-0.9,0.1-1.2,0.3c-0.3,0.1-0.5,0.2-0.7,0.4c-0.1,0.2-0.2,0.4-0.2,0.6v29.6c0,0.2,0.1,0.4,0.2,0.6c0.1,0.2,0.4,0.3,0.8,0.4
	c0.4,0.1,0.8,0.2,1.4,0.3c0.6,0.1,1.3,0.1,2.2,0.1c0.9,0,1.6,0,2.2-0.1c0.6-0.1,1.1-0.1,1.4-0.3c0.3-0.1,0.6-0.2,0.7-0.4
	c0.1-0.2,0.2-0.4,0.2-0.6V34.8c0.7-1,1.3-1.8,1.9-2.5c0.6-0.7,1.2-1.2,1.7-1.6c0.5-0.4,1.1-0.7,1.6-0.9c0.5-0.2,1-0.3,1.5-0.3
	c0.4,0,0.8,0,1.2,0.1c0.4,0.1,0.7,0.2,1,0.2c0.3,0.1,0.6,0.2,0.8,0.3c0.2,0.1,0.5,0.1,0.7,0.1c0.2,0,0.4-0.1,0.6-0.2
	C148.6,30,148.7,29.8,148.8,29.5 M182.7,23.1c0-0.2-0.1-0.4-0.2-0.6c-0.1-0.2-0.4-0.3-0.8-0.4c-0.4-0.1-0.8-0.2-1.4-0.3
	c-0.6-0.1-1.3-0.1-2.2-0.1c-0.9,0-1.6,0-2.2,0.1c-0.6,0.1-1.1,0.2-1.4,0.3c-0.4,0.1-0.6,0.3-0.7,0.4c-0.1,0.1-0.1,0.2-0.2,0.3
	c-2.1-0.7-4.6-1.1-7.5-1.1c-3,0-5.6,0.4-7.8,1.2c-2.2,0.8-4.1,2-5.6,3.5c-1.5,1.5-2.6,3.3-3.3,5.4c-0.7,2.1-1.1,4.4-1.1,6.9
	c0,2.6,0.3,4.9,1,7c0.7,2,1.7,3.7,3.1,5.1c1.4,1.4,3.2,2.5,5.3,3.2c2.1,0.7,4.7,1.1,7.6,1.1c3,0,5.6-0.4,7.9-1.2
	c0.2-0.1,0.4-0.2,0.5-0.2c0,0,0.1,0.1,0.1,0.1c0.1,0.2,0.4,0.3,0.7,0.4c0.4,0.1,0.8,0.2,1.4,0.3c0.6,0.1,1.3,0.1,2.2,0.1
	c0.9,0,1.6,0,2.2-0.1c0.6-0.1,1.1-0.1,1.4-0.3c0.4-0.1,0.6-0.2,0.8-0.4c0.1-0.2,0.2-0.4,0.2-0.6V23.1z M173.5,40.8
	c-0.1,0.7-0.2,1.3-0.3,1.9c-0.3,1.2-0.8,2.3-1.5,3.1c-0.7,0.9-1.5,1.5-2.5,2c-1,0.5-2.2,0.7-3.6,0.7c-1.5,0-2.8-0.3-3.8-0.7
	c-1-0.5-1.8-1.2-2.4-2.1c-0.6-0.9-1-2-1.3-3.2c-0.3-1.2-0.4-2.6-0.4-4c0-1.6,0.2-3,0.5-4.2c0.3-1.2,0.8-2.3,1.5-3.2
	c0.7-0.9,1.5-1.5,2.5-2c1-0.5,2.2-0.7,3.6-0.7c1.5,0,2.8,0.3,3.8,0.8c1,0.5,1.8,1.2,2.4,2.1c0.6,0.9,1,2,1.3,3.2
	c0.1,0.5,0.2,1.1,0.2,1.6V40.8z M237.9,29.4c-0.4-1.5-1-2.9-2-4c-0.9-1.1-2.1-2-3.6-2.7c-1.5-0.7-3.3-1-5.5-1c-1,0-1.9,0.1-2.8,0.3
	c-0.9,0.2-1.8,0.5-2.7,1c-0.9,0.4-1.8,1-2.8,1.7c-0.9,0.7-1.9,1.5-2.9,2.5c-0.4-0.8-0.9-1.6-1.5-2.2c-0.6-0.7-1.3-1.2-2.2-1.7
	c-0.8-0.5-1.8-0.8-2.9-1.1c-1.1-0.3-2.3-0.4-3.6-0.4c-1.9,0-3.8,0.4-5.6,1.3c-1.8,0.9-3.6,2.2-5.4,4v-3.4c0-0.2-0.1-0.4-0.2-0.6
	c-0.1-0.2-0.3-0.3-0.6-0.4c-0.3-0.1-0.7-0.2-1.2-0.3c-0.5-0.1-1.2-0.1-1.9-0.1c-0.8,0-1.4,0-1.9,0.1c-0.5,0.1-0.9,0.1-1.2,0.3
	c-0.3,0.1-0.5,0.2-0.7,0.4c-0.1,0.2-0.2,0.4-0.2,0.6v29.6c0,0.2,0.1,0.4,0.2,0.6c0.1,0.2,0.4,0.3,0.8,0.4c0.4,0.1,0.8,0.2,1.4,0.3
	c0.6,0.1,1.3,0.1,2.2,0.1c0.9,0,1.6,0,2.2-0.1c0.6-0.1,1.1-0.1,1.4-0.3c0.4-0.1,0.6-0.2,0.7-0.4c0.2-0.2,0.2-0.4,0.2-0.6V33.5
	c1.3-1.5,2.5-2.6,3.6-3.4c1.1-0.8,2.2-1.2,3.4-1.2c0.9,0,1.6,0.2,2.3,0.5c0.7,0.3,1.2,0.8,1.6,1.4c0.4,0.6,0.7,1.3,0.9,2.1
	c0.2,0.8,0.3,1.7,0.3,2.7v17.5c0,0.2,0.1,0.4,0.2,0.6c0.1,0.2,0.4,0.3,0.7,0.4c0.4,0.1,0.8,0.2,1.4,0.3c0.6,0.1,1.3,0.1,2.2,0.1
	c0.9,0,1.6,0,2.2-0.1c0.6-0.1,1.1-0.1,1.4-0.3c0.4-0.1,0.6-0.2,0.7-0.4c0.1-0.2,0.2-0.4,0.2-0.6V33.5c1.3-1.5,2.5-2.6,3.7-3.4
	c1.1-0.8,2.2-1.2,3.3-1.2c0.9,0,1.7,0.2,2.3,0.5c0.6,0.3,1.2,0.8,1.6,1.4c0.4,0.6,0.7,1.3,1,2.1c0.2,0.8,0.3,1.7,0.3,2.7v17.5
	c0,0.2,0.1,0.4,0.2,0.6c0.1,0.2,0.4,0.3,0.7,0.4c0.4,0.1,0.8,0.2,1.4,0.3c0.6,0.1,1.3,0.1,2.3,0.1c0.9,0,1.6,0,2.2-0.1
	c0.6-0.1,1-0.1,1.4-0.3c0.3-0.1,0.6-0.2,0.7-0.4c0.1-0.2,0.2-0.4,0.2-0.6V34.3C238.5,32.6,238.3,30.9,237.9,29.4 M17.4,15.7h16.9
	c2.1,0,2.1-1.7,2.1-3.8c0-2.1,0-3.8-2.1-3.8H17.4c-7.5,0-13.5,6-13.5,13.5c0,3.9,1.7,7.4,4.3,9.8c-2.6,2.5-4.3,6-4.3,9.8
	c0,7.5,6,13.5,13.5,13.5h16.9c2.1,0,2.1-1.7,2.1-3.8c0-2.1,0-3.8-2.1-3.8H17.4c-3.3,0-5.9-2.6-5.9-5.9c0-3.3,2.6-5.9,5.9-5.9h16.9
	c2.1,0,2.1-1.7,2.1-3.8c0,0,0-0.1,0-0.1c0,0,0-0.1,0-0.1c0-2.1,0-3.8-2.1-3.8H17.4c-3.3,0-5.9-2.6-5.9-5.9
	C11.5,18.3,14.1,15.7,17.4,15.7"/>
<path class="st1" d="M0.6,66.2c0,0,1-0.3,2.9-0.7c1.9-0.4,4.7-1,8.2-1.6c1.8-0.3,3.8-0.6,5.9-0.9c1.1-0.1,2.2-0.3,3.4-0.5
	c1.2-0.1,2.4-0.3,3.6-0.4c5-0.6,10.7-1.1,16.9-1.5c3.1-0.2,6.3-0.3,9.7-0.5c3.3-0.1,6.8-0.2,10.4-0.3c3.6,0,7.2,0,11-0.1
	c3.7,0,7.6,0.1,11.4,0.2c3.9,0.1,7.8,0.3,11.8,0.4c1,0,2,0.1,3,0.1c1,0.1,2,0.1,3,0.2c2,0.1,4,0.3,6.1,0.4c4.1,0.2,8.2,0.5,12.3,0.8
	c4.1,0.3,8.2,0.6,12.3,0.9c8.2,0.6,16.5,1.2,24.6,1.6c8.1,0.5,16.1,0.9,23.8,1c7.7,0.1,15.2,0.1,22.2-0.3c7-0.4,13.7-1.1,19.7-2.4
	c6-1.2,11.4-2.9,15.9-5.1c4.5-2.2,8-4.9,10.4-7.5c2.4-2.7,3.8-5.2,4.6-6.9c0.2-0.4,0.4-0.8,0.5-1.2c0.1-0.3,0.2-0.6,0.3-0.9
	c0.2-0.5,0.3-0.7,0.3-0.7s-0.1,0.2-0.2,0.7c-0.1,0.2-0.2,0.5-0.3,0.9c-0.1,0.3-0.3,0.7-0.5,1.2c-0.7,1.8-1.9,4.4-4.3,7.3
	c-2.3,2.8-5.8,5.8-10.3,8.2c-4.5,2.4-10,4.4-16,5.8c-6.1,1.4-12.8,2.4-19.9,3c-7.1,0.6-14.7,0.8-22.4,0.8c-7.8,0-15.8-0.3-23.9-0.7
	c-8.1-0.4-16.4-1-24.7-1.5c-8.3-0.5-16.5-1.3-24.6-1.8c-8.1-0.6-16.1-1-23.8-1.4c-3.9-0.1-7.7-0.3-11.4-0.4
	c-3.7-0.1-7.4-0.1-10.9-0.2c-3.5,0-7,0-10.3,0c-3.3,0.1-6.6,0.1-9.6,0.2c-6.2,0.2-11.9,0.5-16.9,0.8c-1.3,0.1-2.5,0.2-3.6,0.3
	c-1.2,0.1-2.3,0.2-3.4,0.3c-2.2,0.2-4.2,0.4-6,0.6c-1.8,0.2-3.4,0.4-4.8,0.6c-1.4,0.2-2.6,0.4-3.5,0.5C1.6,65.9,0.6,66.2,0.6,66.2"
	/>
<path class="st0" d="M0.6,70.6c0,0,1-0.3,2.9-0.7c1.9-0.4,4.7-0.9,8.3-1.4c1.8-0.3,3.8-0.5,6-0.8c1.1-0.1,2.2-0.3,3.4-0.4
	c1.2-0.1,2.4-0.2,3.7-0.4c5.1-0.5,10.8-0.9,17-1.3c3.1-0.2,6.4-0.3,9.7-0.4c3.4-0.1,6.8-0.1,10.4-0.2c3.6,0,7.3,0,11,0
	c3.8,0.1,7.6,0.2,11.5,0.3c3.9,0.1,7.9,0.3,11.9,0.5c4,0.2,8.1,0.5,12.2,0.7c8.2,0.5,16.5,1.2,24.7,1.8c8.3,0.6,16.6,1.2,24.7,1.6
	c8.1,0.5,16.2,0.8,23.9,0.9c7.8,0.1,15.3,0,22.4-0.5c7.1-0.5,13.8-1.2,19.8-2.5c6-1.3,11.5-2.9,16-5.1c4.5-2.2,8.1-4.8,10.6-7.4
	c1.3-1.3,2.3-2.5,3.1-3.7c0.8-1.2,1.4-2.2,1.9-3c0.2-0.4,0.4-0.8,0.6-1.1c0.2-0.3,0.3-0.6,0.4-0.9c0.2-0.5,0.3-0.7,0.3-0.7
	s-0.1,0.2-0.3,0.7c-0.1,0.2-0.2,0.5-0.3,0.9c-0.2,0.3-0.3,0.7-0.5,1.2c-0.8,1.8-2.2,4.3-4.7,7.1c-2.4,2.7-6,5.6-10.5,8
	c-4.5,2.4-10,4.4-16.1,5.8c-6.1,1.5-12.9,2.5-20,3.1c-7.2,0.6-14.7,0.9-22.5,0.9c-7.8,0-15.9-0.2-24.1-0.6
	c-8.2-0.4-16.5-0.9-24.8-1.5c-8.3-0.5-16.6-1.3-24.7-1.8c-8.1-0.6-16.2-1-23.9-1.4c-3.9-0.2-7.7-0.3-11.4-0.4
	c-3.7-0.1-7.4-0.2-11-0.3c-3.6,0-7-0.1-10.4-0.1c-3.4,0-6.6,0-9.7,0.1C35.7,67.8,30,68,25,68.2c-1.3,0.1-2.5,0.1-3.7,0.2
	c-1.2,0.1-2.3,0.2-3.4,0.2c-2.2,0.1-4.2,0.3-6,0.5c-3.6,0.4-6.4,0.7-8.4,1C1.6,70.4,0.6,70.6,0.6,70.6"/>
<path class="st2" d="M0.5,76.1c0,0,1-0.3,2.9-0.7c1-0.2,2.2-0.4,3.6-0.7c1.4-0.2,3-0.5,4.8-0.8c1.8-0.3,3.8-0.5,6-0.8
	c1.1-0.1,2.2-0.3,3.4-0.4c1.2-0.1,2.4-0.2,3.7-0.4c2.5-0.3,5.3-0.5,8.1-0.7c2.9-0.2,5.9-0.4,9-0.5c3.1-0.1,6.4-0.3,9.8-0.4
	c3.4-0.1,6.9-0.1,10.5-0.2c3.6,0,7.3,0,11.1,0c3.8,0.1,7.7,0.2,11.6,0.3c3.9,0.2,7.9,0.3,12,0.5c4,0.2,8.1,0.5,12.3,0.7
	c8.2,0.5,16.6,1.2,24.9,1.8c8.3,0.6,16.7,1.1,24.9,1.6c8.2,0.5,16.3,0.8,24.1,0.8c7.8,0.1,15.4,0,22.5-0.5c7.1-0.5,13.9-1.2,20-2.5
	c6.1-1.3,11.6-2.9,16.2-5.1c4.6-2.1,8.2-4.7,10.8-7.3c2.6-2.6,4.2-5,5.1-6.7c0.2-0.4,0.4-0.8,0.6-1.2c0.2-0.3,0.3-0.6,0.4-0.9
	c0.2-0.5,0.3-0.7,0.3-0.7s-0.1,0.2-0.3,0.7c-0.1,0.2-0.2,0.5-0.3,0.9c-0.2,0.3-0.3,0.7-0.5,1.2c-0.8,1.8-2.3,4.3-4.8,7.1
	c-2.5,2.7-6.1,5.5-10.7,7.9c-4.6,2.4-10.1,4.4-16.3,5.8c-6.2,1.5-13,2.5-20.2,3.1c-7.2,0.6-14.8,0.9-22.7,1c-7.9,0-16-0.2-24.3-0.5
	c-8.3-0.4-16.6-0.9-25-1.5c-8.4-0.5-16.7-1.2-24.9-1.8c-4.1-0.3-8.2-0.6-12.2-0.8c-4-0.2-8-0.4-11.9-0.7c-3.9-0.2-7.8-0.3-11.5-0.5
	c-3.8-0.1-7.5-0.2-11-0.3c-3.6,0-7.1-0.1-10.5-0.1c-3.4,0-6.6,0-9.8,0.1c-6.3,0.1-12,0.3-17.1,0.6c-1.3,0.1-2.5,0.1-3.7,0.2
	c-1.2,0.1-2.3,0.2-3.4,0.2c-2.2,0.1-4.2,0.3-6,0.5c-3.6,0.4-6.5,0.7-8.4,1C1.5,75.9,0.5,76.1,0.5,76.1"/>
</svg>
